<?xml version="1.0" encoding="utf-8"?>
<!-- Generator: Adobe Illustrator 25.1.0, SVG Export Plug-In . SVG Version: 6.00 Build 0)  -->
<svg version="1.1" id="图层_1" xmlns="http://www.w3.org/2000/svg" xmlns:xlink="http://www.w3.org/1999/xlink" x="0px" y="0px"
	 viewBox="0 0 69.5 76" style="enable-background:new 0 0 69.5 76;" xml:space="preserve">
<style type="text/css">
	.st0{fill:#1E80FF;}
</style>
<path class="st0" d="M42.7,65L42.7,65V45.6c-0.3-5.7-2.8-8.7-7.7-8.9l0,0c-4.9,0.3-7.4,3.6-7.4,10.1l0,0V65c-0.3,5.9-3.7,9-10.5,9.3
	l0,0C10.4,74,7,70.9,7,65l0,0V11.1C7,4.9,10.4,1.5,17.1,1l0,0c6.7,0.3,10.2,3.6,10.5,10.1l0,0v17.8c3.6-5.4,8.8-8.1,15.5-8.1l0,0
	C56,21,62.6,27.6,62.8,40.5l0,0V65c-0.3,5.9-3.6,9-10.1,9.3l0,0C46,74,42.7,70.9,42.7,65z"/>
</svg>
