<?xml version="1.0" encoding="utf-8"?>
<!-- Generator: Adobe Illustrator 25.1.0, SVG Export Plug-In . SVG Version: 6.00 Build 0)  -->
<svg version="1.1" id="图层_1" xmlns="http://www.w3.org/2000/svg" xmlns:xlink="http://www.w3.org/1999/xlink" x="0px" y="0px"
	 viewBox="0 0 211.4 76" style="enable-background:new 0 0 211.4 76;" xml:space="preserve">
<style type="text/css">
	.st0{fill:#1E80FF;}
	.st1{font-family:'SimHei';}
	.st2{font-size:72px;}
</style>
<path class="st0" d="M35.4,65L35.4,65V45.6c-0.3-5.7-2.8-8.7-7.7-8.9l0,0c-4.9,0.3-7.4,3.6-7.4,10.1l0,0V65c-0.3,5.9-3.7,9-10.5,9.3
	l0,0C3.1,74-0.3,70.9-0.3,65l0,0V11.1C-0.3,4.9,3.1,1.5,9.8,1l0,0C16.5,1.3,20,4.6,20.3,11.1l0,0v17.8c3.6-5.4,8.8-8.1,15.5-8.1l0,0
	c12.9,0.2,19.5,6.8,19.7,19.7l0,0V65c-0.3,5.9-3.6,9-10.1,9.3l0,0C38.7,74,35.4,70.9,35.4,65z"/>
<text transform="matrix(1 0 0 1 71.9248 65.5614)" class="st1 st2">乎乎</text>
</svg>
