<?xml version="1.0" standalone="no"?><!DOCTYPE svg PUBLIC "-//W3C//DTD SVG 1.1//EN" "http://www.w3.org/Graphics/SVG/1.1/DTD/svg11.dtd"><svg t="1635252041609" class="icon" viewBox="0 0 1024 1024" version="1.1" xmlns="http://www.w3.org/2000/svg" p-id="5562" width="18" height="18" xmlns:xlink="http://www.w3.org/1999/xlink"><defs><style type="text/css"></style></defs><path d="M891 489.2c-13.3 0-24 10.7-24 24 0 195.2-158.8 354-354 354s-354-158.8-354-354 158.8-354 354-354c111 0 215.3 52.1 282.2 140.2L688 281.3c-13.1-2.2-25.5 6.6-27.7 19.7-2.2 13.1 6.6 25.5 19.7 27.7l162.6 27.5c1.3 0.2 2.7 0.3 4 0.3 5.6 0 11.1-2 15.5-5.7 5.4-4.6 8.5-11.3 8.5-18.3V168.7c0-13.3-10.7-24-24-24s-24 10.7-24 24v88.2c-76-91.8-189.3-145.7-309.6-145.7-54.3 0-106.9 10.6-156.5 31.6-47.9 20.2-90.9 49.2-127.8 86.1s-65.9 79.9-86.1 127.8C121.6 406.3 111 459 111 513.2s10.6 106.9 31.6 156.5c20.2 47.9 49.2 90.9 86.1 127.8s79.9 65.9 127.8 86.1c49.6 21 102.2 31.6 156.5 31.6s106.9-10.6 156.5-31.6c47.9-20.2 90.9-49.2 127.8-86.1s65.9-79.9 86.1-127.8c21-49.6 31.6-102.2 31.6-156.5 0-13.2-10.7-24-24-24z" fill="#AAAAAA" p-id="5563"></path></svg>