<?xml version="1.0" standalone="no"?><!DOCTYPE svg PUBLIC "-//W3C//DTD SVG 1.1//EN" "http://www.w3.org/Graphics/SVG/1.1/DTD/svg11.dtd"><svg t="1635252631106" class="icon" viewBox="0 0 1024 1024" version="1.1" xmlns="http://www.w3.org/2000/svg" p-id="6720" xmlns:xlink="http://www.w3.org/1999/xlink" width="18" height="18"><defs><style type="text/css"></style></defs><path d="M815.61216 387.2c-16.426667-113.92-106.666667-226.346667-282.88-246.613333h-7.68a34.133333 34.133333 0 0 0-10.453333 0h-20.053334c-179.626667 16.64-270.08 130.56-286.293333 247.253333A251.52 251.52 0 0 0 0.038827 640c0 180.053333 128 244.266667 247.893333 244.266667h528C896.038827 884.266667 1024.038827 820.053333 1024.038827 641.28v-2.56a252.16 252.16 0 0 0-208.426667-251.52zM938.705493 640c0 138.24-101.76 158.933333-162.56 158.933333H248.145493C187.345493 798.933333 85.37216 778.24 85.37216 640a164.48 164.48 0 0 1 45.44-118.613333 165.973333 165.973333 0 0 1 117.333333-52.053334 42.666667 42.666667 0 0 0 42.666667-42.666666c0-83.413333 55.04-185.813333 209.706667-201.173334h24.96c197.76 23.68 207.786667 170.666667 207.786666 200.533334a42.666667 42.666667 0 0 0 42.666667 42.666666A166.4 166.4 0 0 1 938.705493 637.44V640z" fill="#DA0126" p-id="6721"></path><path d="M568.145493 580.053333l77.866667-77.653333a10.88 10.88 0 0 0 0-15.146667l-45.226667-45.226666a10.666667 10.666667 0 0 0-15.146666 0l-77.866667 77.653333-77.653333-77.653333a10.666667 10.666667 0 0 0-15.146667 0l-45.226667 45.226666a10.88 10.88 0 0 0 0 15.146667L448.038827 580.053333l-77.866667 77.866667a10.88 10.88 0 0 0 0 15.146667l45.226667 45.226666a10.88 10.88 0 0 0 15.146666 0L507.77216 640l77.866667 77.866667a10.88 10.88 0 0 0 15.146666 0l45.226667-45.226667a10.666667 10.666667 0 0 0 0-15.146667z" fill="#DA0126" p-id="6722"></path></svg>