<svg xml:space="preserve" style="enable-background:new 0 0 256 250.053;" viewBox="0 0 256 250.053" height="250.053px" width="256px" y="0px" x="0px" xmlns:xlink="http://www.w3.org/1999/xlink" xmlns="http://www.w3.org/2000/svg" id="Layer_1" version="1.1">
<g id="Layer_4_1_">
	<path d="M256,126.358c0-38.612-31.379-69.915-70.084-69.915c-0.602,0-1.197,0.028-1.795,0.044
		c-12.223-20.484-34.627-34.22-60.259-34.22c-38.708,0-70.084,31.304-70.084,69.919c0,0.502,0.027,0.995,0.038,1.496
		c-21.17,12.029-35.455,34.731-35.455,60.775c0,38.612,31.378,69.914,70.086,69.914c2.201,0,4.375-0.116,6.525-0.312
		c12.856,15.535,32.306,25.438,54.077,25.438c35.777,0,65.268-26.747,69.533-61.285C240.83,176.499,256,153.202,256,126.358z" style="fill:#D6F0FF;"></path>
</g>
<g style="opacity:0.48;" id="Layer_2_2_">
	<path d="M243.274,95.065c-1.912,0-3.737-1.103-4.568-2.962c-9.028-20.211-25.065-36.498-45.157-45.858
		c-15.078-7.025-31.74-9.843-48.19-8.155c-2.734,0.286-5.202-1.715-5.484-4.462s1.716-5.203,4.463-5.485
		c18.239-1.875,36.721,1.25,53.435,9.038c22.274,10.378,40.055,28.435,50.065,50.844c1.126,2.521-0.005,5.478-2.526,6.604
		C244.648,94.925,243.956,95.065,243.274,95.065z" style="fill:#F59FB3;"></path>
	<path d="M244.602,130.685c-2.656,0-4.868-2.091-4.991-4.771c-1.451-31.738-20.227-59.781-48.999-73.186
		c-33.118-15.428-72.274-8.018-97.433,18.437c-1.902,2-5.066,2.082-7.069,0.177c-2.001-1.903-2.081-5.068-0.177-7.069
		c28.122-29.57,71.886-37.853,108.902-20.609c32.159,14.982,53.145,46.324,54.767,81.793c0.126,2.759-2.008,5.098-4.767,5.224
		C244.756,130.683,244.679,130.685,244.602,130.685z" style="fill:#FFFF75;"></path>
	<path d="M236.306,144.101c-0.192,0-0.387-0.011-0.583-0.033c-2.743-0.319-4.708-2.801-4.39-5.544
		c3.853-33.151-13.901-64.903-44.177-79.009c-22.56-10.512-48.989-9.477-70.704,2.766c-2.405,1.356-5.454,0.505-6.811-1.899
		c-1.356-2.406-0.506-5.455,1.899-6.812c24.518-13.823,54.364-14.989,79.838-3.12c34.189,15.93,54.237,51.788,49.888,89.228
		C240.971,142.225,238.81,144.101,236.306,144.101z" style="fill:#AFEB75;"></path>
	<path d="M224.104,107.438c-1.999,0-3.887-1.208-4.658-3.182c-6.552-16.766-19.149-30.189-35.475-37.796
		c-31.176-14.526-68.873-3.817-87.683,24.906c-1.513,2.309-4.612,2.957-6.922,1.444c-2.31-1.513-2.957-4.612-1.444-6.922
		c10.391-15.867,26.198-27.522,44.509-32.818c18.492-5.347,38.295-3.812,55.764,4.326c18.667,8.698,33.073,24.048,40.565,43.221
		c1.005,2.572-0.266,5.472-2.838,6.477C225.325,107.328,224.71,107.438,224.104,107.438z" style="fill:#75D5EB;"></path>
</g>
<g id="Layer_2_1_">
	<rect height="131.768" width="103.191" style="fill:#FFFFFF;" y="82.677" x="28.344"></rect>
	<g style="opacity:0.33;">
		<g>
			<rect height="134.202" width="137.928" style="fill:#FFFFFF;" y="82.677" x="28.344"></rect>
			<path d="M166.271,218.379H28.344c-0.829,0-1.5-0.672-1.5-1.5V82.677c0-0.829,0.671-1.5,1.5-1.5h137.928
				c0.828,0,1.5,0.671,1.5,1.5v134.202C167.771,217.707,167.1,218.379,166.271,218.379z M29.844,215.379h134.928V84.177H29.844
				V215.379z" style="fill:#6E6E96;"></path>
		</g>
		<g>
			<rect height="23.063" width="14.855" style="fill:#BDDFFF;" y="128.76" x="120.527"></rect>
			<path d="M135.382,153.323h-14.855c-0.829,0-1.5-0.672-1.5-1.5V128.76c0-0.828,0.671-1.5,1.5-1.5h14.855
				c0.828,0,1.5,0.672,1.5,1.5v23.063C136.882,152.651,136.21,153.323,135.382,153.323z M122.027,150.323h11.855V130.26h-11.855
				V150.323z" style="fill:#6E6E96;"></path>
		</g>
		<g>
			<rect height="22.922" width="14.855" style="fill:#BDDFFF;" y="157.412" x="120.527"></rect>
			<path d="M135.382,181.834h-14.855c-0.829,0-1.5-0.672-1.5-1.5v-22.922c0-0.828,0.671-1.5,1.5-1.5h14.855
				c0.828,0,1.5,0.672,1.5,1.5v22.922C136.882,181.162,136.21,181.834,135.382,181.834z M122.027,178.834h11.855v-19.922h-11.855
				V178.834z" style="fill:#6E6E96;"></path>
		</g>
		<g>
			<rect height="23.413" width="14.858" style="fill:#BDDFFF;" y="99.753" x="99.594"></rect>
			<path d="M114.452,124.666H99.594c-0.829,0-1.5-0.671-1.5-1.5V99.753c0-0.829,0.671-1.5,1.5-1.5h14.858
				c0.829,0,1.5,0.671,1.5,1.5v23.413C115.952,123.995,115.281,124.666,114.452,124.666z M101.094,121.666h11.858v-20.413h-11.858
				V121.666z" style="fill:#6E6E96;"></path>
		</g>
		<g>
			<rect height="23.063" width="14.858" style="fill:#BDDFFF;" y="128.76" x="99.594"></rect>
			<path d="M114.452,153.323H99.594c-0.829,0-1.5-0.672-1.5-1.5V128.76c0-0.828,0.671-1.5,1.5-1.5h14.858
				c0.829,0,1.5,0.672,1.5,1.5v23.063C115.952,152.651,115.281,153.323,114.452,153.323z M101.094,150.323h11.858V130.26h-11.858
				V150.323z" style="fill:#6E6E96;"></path>
		</g>
		<g>
			<rect height="23.063" width="17.479" style="fill:#BDDFFF;" y="128.76" x="141.463"></rect>
			<path d="M158.941,153.323h-17.479c-0.828,0-1.5-0.672-1.5-1.5V128.76c0-0.828,0.672-1.5,1.5-1.5h17.479
				c0.828,0,1.5,0.672,1.5,1.5v23.063C160.441,152.651,159.77,153.323,158.941,153.323z M142.963,150.323h14.479V130.26h-14.479
				V150.323z" style="fill:#6E6E96;"></path>
		</g>
		<g>
			<rect height="23.413" width="14.855" style="fill:#BDDFFF;" y="99.753" x="120.527"></rect>
			<path d="M135.382,124.666h-14.855c-0.829,0-1.5-0.671-1.5-1.5V99.753c0-0.829,0.671-1.5,1.5-1.5h14.855
				c0.828,0,1.5,0.671,1.5,1.5v23.413C136.882,123.995,136.21,124.666,135.382,124.666z M122.027,121.666h11.855v-20.413h-11.855
				V121.666z" style="fill:#6E6E96;"></path>
		</g>
		<g>
			<rect height="22.922" width="14.858" style="fill:#BDDFFF;" y="157.412" x="99.594"></rect>
			<path d="M114.452,181.834H99.594c-0.829,0-1.5-0.672-1.5-1.5v-22.922c0-0.828,0.671-1.5,1.5-1.5h14.858
				c0.829,0,1.5,0.672,1.5,1.5v22.922C115.952,181.162,115.281,181.834,114.452,181.834z M101.094,178.834h11.858v-19.922h-11.858
				V178.834z" style="fill:#6E6E96;"></path>
		</g>
		<g>
			<rect height="23.413" width="17.479" style="fill:#BDDFFF;" y="99.753" x="141.463"></rect>
			<path d="M158.941,124.666h-17.479c-0.828,0-1.5-0.671-1.5-1.5V99.753c0-0.829,0.672-1.5,1.5-1.5h17.479
				c0.828,0,1.5,0.671,1.5,1.5v23.413C160.441,123.995,159.77,124.666,158.941,124.666z M142.963,121.666h14.479v-20.413h-14.479
				V121.666z" style="fill:#6E6E96;"></path>
		</g>
		<g>
			<rect height="22.922" width="17.479" style="fill:#BDDFFF;" y="157.412" x="141.463"></rect>
			<path d="M158.941,181.834h-17.479c-0.828,0-1.5-0.672-1.5-1.5v-22.922c0-0.828,0.672-1.5,1.5-1.5h17.479
				c0.828,0,1.5,0.672,1.5,1.5v22.922C160.441,181.162,159.77,181.834,158.941,181.834z M142.963,178.834h14.479v-19.922h-14.479
				V178.834z" style="fill:#6E6E96;"></path>
		</g>
		<g>
			<rect height="23.063" width="16.074" style="fill:#BDDFFF;" y="128.76" x="35.577"></rect>
			<path d="M51.651,153.323H35.577c-0.829,0-1.5-0.672-1.5-1.5V128.76c0-0.828,0.671-1.5,1.5-1.5h16.074
				c0.829,0,1.5,0.672,1.5,1.5v23.063C53.151,152.651,52.479,153.323,51.651,153.323z M37.077,150.323h13.074V130.26H37.077V150.323
				z" style="fill:#6E6E96;"></path>
		</g>
		<g>
			<rect height="23.413" width="16.074" style="fill:#BDDFFF;" y="99.753" x="35.577"></rect>
			<path d="M51.651,124.666H35.577c-0.829,0-1.5-0.671-1.5-1.5V99.753c0-0.829,0.671-1.5,1.5-1.5h16.074
				c0.829,0,1.5,0.671,1.5,1.5v23.413C53.151,123.995,52.479,124.666,51.651,124.666z M37.077,121.666h13.074v-20.413H37.077
				V121.666z" style="fill:#6E6E96;"></path>
		</g>
		<g>
			<rect height="22.922" width="16.074" style="fill:#BDDFFF;" y="157.412" x="35.577"></rect>
			<path d="M51.651,181.834H35.577c-0.829,0-1.5-0.672-1.5-1.5v-22.922c0-0.828,0.671-1.5,1.5-1.5h16.074
				c0.829,0,1.5,0.672,1.5,1.5v22.922C53.151,181.162,52.479,181.834,51.651,181.834z M37.077,178.834h13.074v-19.922H37.077
				V178.834z" style="fill:#6E6E96;"></path>
		</g>
		<g>
			<rect height="22.922" width="14.854" style="fill:#BDDFFF;" y="157.412" x="57.729"></rect>
			<path d="M72.583,181.834H57.729c-0.829,0-1.5-0.672-1.5-1.5v-22.922c0-0.828,0.671-1.5,1.5-1.5h14.854
				c0.829,0,1.5,0.672,1.5,1.5v22.922C74.083,181.162,73.412,181.834,72.583,181.834z M59.229,178.834h11.854v-19.922H59.229
				V178.834z" style="fill:#6E6E96;"></path>
		</g>
		<g>
			<rect height="23.063" width="14.854" style="fill:#BDDFFF;" y="128.76" x="57.729"></rect>
			<path d="M72.583,153.323H57.729c-0.829,0-1.5-0.672-1.5-1.5V128.76c0-0.828,0.671-1.5,1.5-1.5h14.854
				c0.829,0,1.5,0.672,1.5,1.5v23.063C74.083,152.651,73.412,153.323,72.583,153.323z M59.229,150.323h11.854V130.26H59.229V150.323
				z" style="fill:#6E6E96;"></path>
		</g>
		<g>
			<rect height="22.922" width="14.857" style="fill:#BDDFFF;" y="157.412" x="78.662"></rect>
			<path d="M93.519,181.834H78.662c-0.829,0-1.5-0.672-1.5-1.5v-22.922c0-0.828,0.671-1.5,1.5-1.5h14.857
				c0.829,0,1.5,0.672,1.5,1.5v22.922C95.019,181.162,94.348,181.834,93.519,181.834z M80.162,178.834h11.857v-19.922H80.162
				V178.834z" style="fill:#6E6E96;"></path>
		</g>
		<g>
			<rect height="23.413" width="14.857" style="fill:#BDDFFF;" y="99.753" x="78.662"></rect>
			<path d="M93.519,124.666H78.662c-0.829,0-1.5-0.671-1.5-1.5V99.753c0-0.829,0.671-1.5,1.5-1.5h14.857
				c0.829,0,1.5,0.671,1.5,1.5v23.413C95.019,123.995,94.348,124.666,93.519,124.666z M80.162,121.666h11.857v-20.413H80.162
				V121.666z" style="fill:#6E6E96;"></path>
		</g>
		<g>
			<rect height="23.063" width="14.857" style="fill:#BDDFFF;" y="128.76" x="78.662"></rect>
			<path d="M93.519,153.323H78.662c-0.829,0-1.5-0.672-1.5-1.5V128.76c0-0.828,0.671-1.5,1.5-1.5h14.857
				c0.829,0,1.5,0.672,1.5,1.5v23.063C95.019,152.651,94.348,153.323,93.519,153.323z M80.162,150.323h11.857V130.26H80.162V150.323
				z" style="fill:#6E6E96;"></path>
		</g>
		<g>
			<rect height="23.413" width="14.854" style="fill:#BDDFFF;" y="99.753" x="57.729"></rect>
			<path d="M72.583,124.666H57.729c-0.829,0-1.5-0.671-1.5-1.5V99.753c0-0.829,0.671-1.5,1.5-1.5h14.854
				c0.829,0,1.5,0.671,1.5,1.5v23.413C74.083,123.995,73.412,124.666,72.583,124.666z M59.229,121.666h11.854v-20.413H59.229
				V121.666z" style="fill:#6E6E96;"></path>
		</g>
		<g>
			<rect height="6.711" width="145.371" style="fill:#D5B697;" y="82.677" x="24.627"></rect>
			<path d="M169.998,90.888H24.627c-0.829,0-1.5-0.671-1.5-1.5v-6.711c0-0.829,0.671-1.5,1.5-1.5h145.371
				c0.828,0,1.5,0.671,1.5,1.5v6.711C171.498,90.216,170.826,90.888,169.998,90.888z M26.127,87.888h142.371v-3.711H26.127V87.888z" style="fill:#6E6E96;"></path>
		</g>
		<g>
			<rect height="22.924" width="14.855" style="fill:#BDDFFF;" y="186.302" x="120.527"></rect>
			<path d="M135.382,210.726h-14.855c-0.829,0-1.5-0.672-1.5-1.5v-22.924c0-0.828,0.671-1.5,1.5-1.5h14.855
				c0.828,0,1.5,0.672,1.5,1.5v22.924C136.882,210.054,136.21,210.726,135.382,210.726z M122.027,207.726h11.855v-19.924h-11.855
				V207.726z" style="fill:#6E6E96;"></path>
		</g>
		<g>
			<rect height="22.924" width="17.479" style="fill:#BDDFFF;" y="186.302" x="141.463"></rect>
			<path d="M158.941,210.726h-17.479c-0.828,0-1.5-0.672-1.5-1.5v-22.924c0-0.828,0.672-1.5,1.5-1.5h17.479
				c0.828,0,1.5,0.672,1.5,1.5v22.924C160.441,210.054,159.77,210.726,158.941,210.726z M142.963,207.726h14.479v-19.924h-14.479
				V207.726z" style="fill:#6E6E96;"></path>
		</g>
		<g>
			<rect height="22.924" width="16.074" style="fill:#BDDFFF;" y="186.302" x="35.577"></rect>
			<path d="M51.651,210.726H35.577c-0.829,0-1.5-0.672-1.5-1.5v-22.924c0-0.828,0.671-1.5,1.5-1.5h16.074
				c0.829,0,1.5,0.672,1.5,1.5v22.924C53.151,210.054,52.479,210.726,51.651,210.726z M37.077,207.726h13.074v-19.924H37.077
				V207.726z" style="fill:#6E6E96;"></path>
		</g>
		<g>
			<rect height="22.924" width="14.854" style="fill:#BDDFFF;" y="186.302" x="57.729"></rect>
			<path d="M72.583,210.726H57.729c-0.829,0-1.5-0.672-1.5-1.5v-22.924c0-0.828,0.671-1.5,1.5-1.5h14.854
				c0.829,0,1.5,0.672,1.5,1.5v22.924C74.083,210.054,73.412,210.726,72.583,210.726z M59.229,207.726h11.854v-19.924H59.229
				V207.726z" style="fill:#6E6E96;"></path>
		</g>
		<g>
			<rect height="30.576" width="35.848" style="fill:#E4BC96;" y="186.302" x="78.662"></rect>
			<path d="M114.51,218.378H78.662c-0.829,0-1.5-0.672-1.5-1.5v-30.576c0-0.828,0.671-1.5,1.5-1.5h35.848
				c0.829,0,1.5,0.672,1.5,1.5v30.576C116.01,217.706,115.338,218.378,114.51,218.378z M80.162,215.378h32.848v-27.576H80.162
				V215.378z" style="fill:#6E6E96;"></path>
		</g>
		<path d="M96.38,218.379c-0.829,0-1.5-0.672-1.5-1.5v-30.577c0-0.828,0.671-1.5,1.5-1.5s1.5,0.672,1.5,1.5
			v30.577C97.88,217.707,97.208,218.379,96.38,218.379z" style="fill:#6E6E96;"></path>
	</g>
	<path d="M88.328,66.607H68.286c-1.381,0-2.5-1.119-2.5-2.5s1.119-2.5,2.5-2.5h20.042
		c1.381,0,2.5,1.119,2.5,2.5S89.709,66.607,88.328,66.607z" style="fill:#FFFFFF;"></path>
</g>
<g id="Layer_3_1_">
	<g>
		<rect height="9.577" width="63.681" style="fill:#EBEBF7;" y="21.293" x="124.264"></rect>
		<path d="M187.945,32.37h-63.681c-0.829,0-1.5-0.671-1.5-1.5v-9.577c0-0.829,0.671-1.5,1.5-1.5h63.681
			c0.828,0,1.5,0.671,1.5,1.5v9.577C189.445,31.699,188.773,32.37,187.945,32.37z M125.764,29.37h60.681v-6.577h-60.681V29.37z" style="fill:#CCCCDE;"></path>
	</g>
	<g>
		<rect height="169.638" width="100.177" style="fill:#FFFFFF;" y="30.704" x="105.856"></rect>
		<path d="M206.033,201.842H105.856c-0.829,0-1.5-0.672-1.5-1.5V30.704c0-0.829,0.671-1.5,1.5-1.5h100.177
			c0.828,0,1.5,0.671,1.5,1.5v169.638C207.533,201.17,206.861,201.842,206.033,201.842z M107.356,198.842h97.177V32.204h-97.177
			V198.842z" style="fill:#CCCCDE;"></path>
	</g>
	<g>
		<rect height="161.16" width="83.523" style="fill:#CFE7FF;" y="39.181" x="114.465"></rect>
		<path d="M197.988,201.841h-83.523c-0.829,0-1.5-0.672-1.5-1.5V39.181c0-0.829,0.671-1.5,1.5-1.5h83.523
			c0.828,0,1.5,0.671,1.5,1.5v161.16C199.488,201.169,198.816,201.841,197.988,201.841z M115.965,198.841h80.523V40.681h-80.523
			V198.841z" style="fill:#CCCCDE;"></path>
	</g>
	<polygon points="115.53,122.967 193.936,40.19 137.066,40.357 
		115.53,63.772" style="opacity:0.49;fill:#FFFFFF;enable-background:new    ;"></polygon>
	<polygon points="197.293,62.439 114.919,149.404 137.541,150.097 
		197.293,87.011" style="opacity:0.27;fill:#FFFFFF;enable-background:new    ;"></polygon>
	<g>
		<rect height="50.879" width="83.523" style="fill:#CFE7FF;" y="149.463" x="114.465"></rect>
		<path d="M197.988,201.842h-83.523c-0.829,0-1.5-0.672-1.5-1.5v-50.879c0-0.828,0.671-1.5,1.5-1.5h83.523
			c0.828,0,1.5,0.672,1.5,1.5v50.879C199.488,201.17,198.816,201.842,197.988,201.842z M115.965,198.842h80.523v-47.879h-80.523
			V198.842z" style="fill:#CCCCDE;"></path>
	</g>
	<g style="opacity:0.37;">
		<polygon points="136.398,161.942 115.699,183.163 115.699,196.121 
			136.398,174.901" style="opacity:0.49;fill:#FFFFFF;enable-background:new    ;"></polygon>
		<polyline points="115.58,173.335 126.692,161.942 115.58,161.942" style="opacity:0.49;fill:#FFFFFF;enable-background:new    ;"></polyline>
	</g>
	<g style="opacity:0.37;">
		<polygon points="166.252,161.942 146.152,183.163 146.152,196.121 
			166.252,174.901" style="opacity:0.49;fill:#FFFFFF;enable-background:new    ;"></polygon>
		<polyline points="146.836,173.335 157.627,161.942 
			146.836,161.942" style="opacity:0.49;fill:#FFFFFF;enable-background:new    ;"></polyline>
	</g>
	<g style="opacity:0.37;">
		<polygon points="196.857,161.942 174.525,183.163 174.525,196.121 
			196.857,174.901" style="opacity:0.49;fill:#FFFFFF;enable-background:new    ;"></polygon>
		<polyline points="175.283,173.335 187.275,161.942 
			175.283,161.942" style="opacity:0.49;fill:#FFFFFF;enable-background:new    ;"></polyline>
	</g>
	<rect height="110.282" width="3" style="fill:#CCCCDE;" y="39.181" x="123.609"></rect>
	<rect height="110.282" width="3" style="fill:#CCCCDE;" y="39.181" x="134.266"></rect>
	<rect height="110.282" width="3" style="fill:#CCCCDE;" y="39.181" x="144.658"></rect>
	<rect height="110.282" width="3" style="fill:#CCCCDE;" y="39.181" x="155.58"></rect>
	<rect height="110.282" width="3" style="fill:#CCCCDE;" y="39.181" x="165.973"></rect>
	<rect height="110.282" width="3" style="fill:#CCCCDE;" y="39.181" x="176.098"></rect>
	<rect height="110.282" width="3" style="fill:#CCCCDE;" y="39.181" x="186.221"></rect>
	<path d="M197.988,63.935h-83.523c-0.829,0-1.5-0.671-1.5-1.5s0.671-1.5,1.5-1.5h83.523
		c0.828,0,1.5,0.671,1.5,1.5S198.816,63.935,197.988,63.935z" style="fill:#CCCCDE;"></path>
	<path d="M197.988,86.437h-83.523c-0.829,0-1.5-0.671-1.5-1.5s0.671-1.5,1.5-1.5h83.523
		c0.828,0,1.5,0.671,1.5,1.5S198.816,86.437,197.988,86.437z" style="fill:#CCCCDE;"></path>
	<path d="M197.988,107.817h-83.523c-0.829,0-1.5-0.671-1.5-1.5s0.671-1.5,1.5-1.5h83.523
		c0.828,0,1.5,0.671,1.5,1.5S198.816,107.817,197.988,107.817z" style="fill:#CCCCDE;"></path>
	<rect height="3" width="83.523" style="fill:#CCCCDE;" y="126.194" x="114.465"></rect>
	<g>
		<rect height="42.69" width="8.521" style="fill:#F0F0FF;" y="157.649" x="137.631"></rect>
		<path d="M146.152,201.84h-8.521c-0.828,0-1.5-0.672-1.5-1.5v-42.69c0-0.828,0.672-1.5,1.5-1.5h8.521
			c0.828,0,1.5,0.672,1.5,1.5v42.69C147.652,201.168,146.98,201.84,146.152,201.84z M139.131,198.84h5.521v-39.69h-5.521V198.84z" style="fill:#CCCCDE;"></path>
	</g>
	<g>
		<rect height="44.64" width="7.994" style="fill:#F0F0FF;" y="155.703" x="166.006"></rect>
		<path d="M174,201.843h-7.994c-0.828,0-1.5-0.672-1.5-1.5v-44.64c0-0.828,0.672-1.5,1.5-1.5H174
			c0.828,0,1.5,0.672,1.5,1.5v44.64C175.5,201.171,174.828,201.843,174,201.843z M167.506,198.843h4.994v-41.64h-4.994V198.843z" style="fill:#CCCCDE;"></path>
	</g>
	<g>
		<rect height="12.479" width="83.523" style="fill:#F0F0FF;" y="149.463" x="114.465"></rect>
		<path d="M197.988,163.442h-83.523c-0.829,0-1.5-0.672-1.5-1.5v-12.479c0-0.828,0.671-1.5,1.5-1.5h83.523
			c0.828,0,1.5,0.672,1.5,1.5v12.479C199.488,162.771,198.816,163.442,197.988,163.442z M115.965,160.442h80.523v-9.479h-80.523
			V160.442z" style="fill:#CCCCDE;"></path>
	</g>
	<g>
		<rect height="7.521" width="27.975" style="fill:#EBEBF7;" y="13.772" x="142.115"></rect>
		<path d="M170.09,22.793h-27.975c-0.828,0-1.5-0.671-1.5-1.5v-7.521c0-0.829,0.672-1.5,1.5-1.5h27.975
			c0.828,0,1.5,0.671,1.5,1.5v7.521C171.59,22.122,170.918,22.793,170.09,22.793z M143.615,19.793h24.975v-4.521h-24.975V19.793z" style="fill:#CCCCDE;"></path>
	</g>
	<path d="M156.104,15.272c-0.828,0-1.5-0.671-1.5-1.5V1.5c0-0.829,0.672-1.5,1.5-1.5s1.5,0.671,1.5,1.5
		v12.272C157.604,14.601,156.932,15.272,156.104,15.272z" style="fill:#CCCCDE;"></path>
	<g>
		<rect height="8.72" width="108.846" style="fill:#F0F0FF;" y="196.049" x="102.32"></rect>
		<path d="M211.166,206.269H102.32c-0.829,0-1.5-0.672-1.5-1.5v-8.72c0-0.828,0.671-1.5,1.5-1.5h108.846
			c0.828,0,1.5,0.672,1.5,1.5v8.72C212.666,205.597,211.994,206.269,211.166,206.269z M103.82,203.269h105.846v-5.72H103.82V203.269
			z" style="fill:#CCCCDE;"></path>
	</g>
</g>
<g id="Layer_6_1_">
	<g>
		<polygon points="246.594,216.531 162.051,216.531 162.051,144.271 204.324,117.211 246.594,144.271" style="fill:#FFFFFF;"></polygon>
		<path d="M248.094,218.031h-87.543v-74.582l43.773-28.02l43.77,28.021V218.031z M163.551,215.031h81.543
			v-69.94l-40.77-26.099l-40.773,26.1V215.031z" style="fill:#CCCCDE;"></path>
	</g>
	<g>
		<polygon points="204.324,112.623 154.623,142.839 154.623,147.808 162.051,147.808 204.324,121.711 
			246.48,148.151 252.998,148.253 252.998,142.839" style="fill:#E0E6FC;"></polygon>
		<path d="M252.998,149.753c-0.008,0-0.016,0-0.023,0l-6.518-0.102c-0.273-0.005-0.541-0.084-0.773-0.229
			l-41.365-25.944l-41.479,25.606c-0.237,0.146-0.51,0.224-0.788,0.224h-7.428c-0.828,0-1.5-0.672-1.5-1.5v-4.969
			c0-0.523,0.273-1.01,0.721-1.281l49.701-30.216c0.482-0.294,1.09-0.292,1.57,0.007l48.674,30.216
			c0.44,0.273,0.709,0.756,0.709,1.274v5.414c0,0.402-0.161,0.787-0.447,1.069C253.77,149.599,253.392,149.753,252.998,149.753z
			 M246.923,146.658l4.575,0.071v-3.057l-47.182-29.29l-48.193,29.299v2.625h5.502l41.911-25.873c0.485-0.3,1.102-0.299,1.585,0.006
			L246.923,146.658z" style="fill:#CCCCDE;"></path>
	</g>
	<g>
		<rect height="18.938" width="28.699" style="fill:#D4EAFF;" y="180.342" x="170.033"></rect>
		<path d="M198.732,200.78h-28.699c-0.828,0-1.5-0.672-1.5-1.5v-18.938c0-0.828,0.672-1.5,1.5-1.5h28.699
			c0.828,0,1.5,0.672,1.5,1.5v18.938C200.232,200.108,199.561,200.78,198.732,200.78z M171.533,197.78h25.699v-15.938h-25.699
			V197.78z" style="fill:#CCCCDE;"></path>
	</g>
	<g>
		<rect height="11.511" width="84.543" style="fill:#FCEBE3;" y="205.021" x="162.051"></rect>
		<path d="M246.594,218.031h-84.543c-0.828,0-1.5-0.672-1.5-1.5v-11.511c0-0.828,0.672-1.5,1.5-1.5h84.543
			c0.828,0,1.5,0.672,1.5,1.5v11.511C248.094,217.359,247.422,218.031,246.594,218.031z M163.551,215.031h81.543v-8.511h-81.543
			V215.031z" style="fill:#CCCCDE;"></path>
	</g>
	<g>
		<path d="M199.93,216.531c0-0.021,0.004-0.042,0.004-0.064c0-3.562-2.49-6.452-5.562-6.452
			c-1.422,0-2.719,0.627-3.699,1.644c-0.768-4.234-4.002-7.417-7.883-7.417c-1.768,0-3.396,0.668-4.723,1.785
			c-1.67-2.661-4.365-4.399-7.422-4.399c-4.189,0-7.722,3.265-8.818,7.717c-0.41-0.104-0.84-0.167-1.277-0.167
			c-3.271,0-5.924,3.076-5.924,6.875c0,0.162,0.01,0.322,0.021,0.483L199.93,216.531L199.93,216.531z" style="fill:#CCE8D6;"></path>
		<path d="M154.646,218.035c-0.786,0-1.439-0.607-1.496-1.392c-0.015-0.197-0.025-0.394-0.025-0.592
			c0-4.698,3.488-8.523,7.638-8.371c1.62-4.509,5.525-7.554,9.882-7.554c2.95,0,5.762,1.404,7.767,3.821
			c1.348-0.794,2.836-1.207,4.378-1.207c3.822,0,7.229,2.607,8.735,6.448c0.889-0.442,1.855-0.675,2.847-0.675
			c3.895,0,7.062,3.567,7.062,7.952c0,0.036-0.003,0.092-0.006,0.137c-0.037,0.795-0.693,1.428-1.498,1.428L154.646,218.035z
			 M160.549,210.677c-2.153,0-3.952,1.879-4.345,4.358l42.056-0.004c-0.506-2.032-2.058-3.517-3.889-3.517
			c-0.952,0-1.883,0.421-2.619,1.185c-0.391,0.406-0.977,0.558-1.515,0.395c-0.539-0.163-0.941-0.614-1.041-1.168
			c-0.65-3.584-3.345-6.185-6.407-6.185c-1.345,0-2.644,0.495-3.756,1.433c-0.332,0.28-0.771,0.398-1.198,0.335
			c-0.43-0.067-0.809-0.317-1.039-0.686c-1.475-2.349-3.717-3.696-6.151-3.696c-3.381,0-6.408,2.704-7.362,6.575
			c-0.096,0.389-0.342,0.723-0.685,0.929c-0.344,0.205-0.754,0.266-1.142,0.166C161.142,210.718,160.837,210.677,160.549,210.677z" style="fill:#CCCCDE;"></path>
	</g>
	<g>
		<rect height="36.188" width="22.051" style="fill:#FFDEDE;" y="180.342" x="211.518"></rect>
		<path d="M233.568,218.03h-22.051c-0.828,0-1.5-0.672-1.5-1.5v-36.188c0-0.828,0.672-1.5,1.5-1.5h22.051
			c0.828,0,1.5,0.672,1.5,1.5v36.188C235.068,217.358,234.396,218.03,233.568,218.03z M213.018,215.03h19.051v-33.188h-19.051
			V215.03z" style="fill:#CCCCDE;"></path>
	</g>
	<path d="M246.594,175.101h-84.543c-0.828,0-1.5-0.672-1.5-1.5s0.672-1.5,1.5-1.5h84.543
		c0.828,0,1.5,0.672,1.5,1.5S247.422,175.101,246.594,175.101z" style="fill:#CCCCDE;"></path>
	<g>
		<g>
			<rect height="17.586" width="15.441" style="fill:#D4EAFF;" y="149.106" x="170.033"></rect>
			<path d="M185.475,168.192h-15.441c-0.828,0-1.5-0.672-1.5-1.5v-17.586c0-0.828,0.672-1.5,1.5-1.5h15.441
				c0.828,0,1.5,0.672,1.5,1.5v17.586C186.975,167.521,186.303,168.192,185.475,168.192z M171.533,165.192h12.441v-14.586h-12.441
				V165.192z" style="fill:#CCCCDE;"></path>
		</g>
		<path d="M185.475,159.397h-15.441c-0.828,0-1.5-0.672-1.5-1.5s0.672-1.5,1.5-1.5h15.441
			c0.828,0,1.5,0.672,1.5,1.5S186.303,159.397,185.475,159.397z" style="fill:#CCCCDE;"></path>
	</g>
	<g>
		<g>
			<rect height="17.586" width="15.442" style="fill:#D4EAFF;" y="149.106" x="222.855"></rect>
			<path d="M238.298,168.192h-15.442c-0.828,0-1.5-0.672-1.5-1.5v-17.586c0-0.828,0.672-1.5,1.5-1.5h15.442
				c0.828,0,1.5,0.672,1.5,1.5v17.586C239.798,167.521,239.126,168.192,238.298,168.192z M224.355,165.192h12.442v-14.586h-12.442
				V165.192z" style="fill:#CCCCDE;"></path>
		</g>
		<path d="M238.301,159.397h-15.445c-0.828,0-1.5-0.672-1.5-1.5s0.672-1.5,1.5-1.5h15.445
			c0.828,0,1.5,0.672,1.5,1.5S239.129,159.397,238.301,159.397z" style="fill:#CCCCDE;"></path>
	</g>
	<g>
		<g>
			<rect height="17.586" width="15.44" style="fill:#D4EAFF;" y="149.106" x="196.521"></rect>
			<path d="M211.962,168.192h-15.44c-0.828,0-1.5-0.672-1.5-1.5v-17.586c0-0.828,0.672-1.5,1.5-1.5h15.44
				c0.828,0,1.5,0.672,1.5,1.5v17.586C213.462,167.521,212.79,168.192,211.962,168.192z M198.021,165.192h12.44v-14.586h-12.44
				V165.192z" style="fill:#CCCCDE;"></path>
		</g>
		<path d="M211.965,159.397h-15.443c-0.828,0-1.5-0.672-1.5-1.5s0.672-1.5,1.5-1.5h15.443
			c0.828,0,1.5,0.672,1.5,1.5S212.793,159.397,211.965,159.397z" style="fill:#CCCCDE;"></path>
	</g>
	<path d="M184.416,200.779c-0.828,0-1.5-0.672-1.5-1.5v-18.938c0-0.828,0.672-1.5,1.5-1.5s1.5,0.672,1.5,1.5
		v18.938C185.916,200.107,185.244,200.779,184.416,200.779z" style="fill:#CCCCDE;"></path>
	<g>
		<rect height="4.134" width="28.02" style="fill:#F0F0FF;" y="212.397" x="208.533"></rect>
		<path d="M236.553,218.031h-28.02c-0.828,0-1.5-0.672-1.5-1.5v-4.134c0-0.828,0.672-1.5,1.5-1.5h28.02
			c0.828,0,1.5,0.672,1.5,1.5v4.134C238.053,217.359,237.381,218.031,236.553,218.031z M210.033,215.031h25.02v-1.134h-25.02
			V215.031z" style="fill:#CCCCDE;"></path>
	</g>
	<path d="M215.193,200.115c-0.828,0-1.5-0.672-1.5-1.5v-4.591c0-0.828,0.672-1.5,1.5-1.5s1.5,0.672,1.5,1.5
		v4.591C216.693,199.443,216.021,200.115,215.193,200.115z" style="fill:#CCCCDE;"></path>
</g>
<g>
	<g>
		<path d="M57.244,175.419c0-8.323-7.243-15.07-16.177-15.07c-0.14,0-0.278,0.004-0.415,0.008
			c-2.821-4.414-7.993-7.375-13.909-7.375c-8.936,0-16.179,6.748-16.179,15.072c0,0.106,0.007,0.215,0.009,0.321
			c-4.885,2.594-8.183,7.485-8.183,13.103c0,8.324,7.243,15.071,16.177,15.071c0.508,0,1.01-0.022,1.506-0.065
			c2.968,3.351,7.458,5.481,12.482,5.481c8.259,0,15.066-5.767,16.05-13.211C53.742,186.228,57.244,181.206,57.244,175.419z" style="fill:#D7F7E4;"></path>
		<path d="M32.555,203.465c-5.017,0-9.746-1.973-13.096-5.438C9.31,198.521,0.89,190.892,0.89,181.478
			c0-5.667,3.113-10.945,8.184-13.979c0.313-8.882,8.119-16.018,17.669-16.018c5.885,0,11.439,2.805,14.702,7.371
			c9.574,0.188,17.299,7.548,17.299,16.566c0,5.93-3.343,11.349-8.776,14.317C48.516,197.617,41.175,203.465,32.555,203.465z
			 M20.696,194.924l0.5,0.565c2.801,3.162,6.941,4.976,11.359,4.976c7.405,0,13.666-5.119,14.562-11.907l0.105-0.796l0.72-0.354
			c4.812-2.367,7.801-6.961,7.801-11.989c0-7.482-6.584-13.57-14.677-13.57c-0.126,0-0.25,0.004-0.373,0.007l-0.849,0.024
			l-0.458-0.716c-2.634-4.122-7.479-6.683-12.645-6.683c-8.094,0-14.679,6.089-14.679,13.572l0.03,1.212l-0.817,0.435
			c-4.556,2.419-7.387,6.932-7.387,11.777c0,7.483,6.584,13.571,14.677,13.571c0.465,0,0.923-0.021,1.377-0.06L20.696,194.924z" style="fill:#CCCCDE;"></path>
	</g>
	<path d="M40.795,159.804c-0.138,0-0.276,0.008-0.414,0.012
		c-2.262-3.543-6.035-6.146-10.493-7.039c3.526,0.886,6.497,3.029,8.322,5.887c0.118-0.004,1.739,2.799,1.859,2.799
		c7.667,0,11.233,4.13,11.233,11.271c0,4.968-1.86,8.131-6.267,10.3c-0.845,6.389-6.688,11.338-13.773,11.338
		c-4.312,0-8.164-1.832-10.711-4.706c-0.426,0.037-0.856,0.059-1.292,0.059c-7.667,0-13.689-3.635-13.689-10.775
		c0-4.812,2.153-7.18,6.071-10.034c-0.104-0.619-0.539-6.063,0.913-7.517c3.45-3.451,5.013-6.416,8.1-7.947
		c-6.058,2.179-10.356,7.65-10.356,14.064c0,0.104,0.004,0.213,0.008,0.32c-4.887,2.594-8.185,7.484-8.185,13.104
		c0,8.323,7.243,15.07,16.178,15.07c0.508,0,1.011-0.023,1.506-0.064c2.968,3.351,7.458,5.481,12.482,5.481
		c8.257,0,15.064-5.768,16.05-13.213c5.136-2.524,8.637-7.547,8.637-13.332C56.973,166.552,49.729,159.804,40.795,159.804z" style="opacity:0.1;fill:#6E6E96;enable-background:new    ;"></path>
	<g>
		<path d="M17.771,183.571c0,0,8.377,1.641,8.377,9.84c0,0,2.256,13.925-6.462,23.777h20.131
			c-0.2-0.274-17.584-23.502,1.764-37.309C29.781,186.626,17.771,183.571,17.771,183.571z" style="fill:#EDE3DA;"></path>
		<path d="M39.817,218.688H16.356l2.207-2.494c8.126-9.184,6.125-22.412,6.104-22.545l-0.019-0.238
			c0-6.09-5.345-7.912-6.995-8.328l-0.252-0.058l0.659-2.926c0,0,0.105,0.02,0.294,0.066c0.669,0.146,3.002,0.595,6.243,0.595
			c4.07,0,10.192-0.726,16.24-4.183l1.616,2.522c-4.687,3.345-7.466,7.565-8.259,12.545c-1.733,10.877,6.472,22.165,6.822,22.64
			l1.761,2.391L39.817,218.688z M22.756,215.688h14.259c-2.624-4.253-7.249-13.324-5.784-22.515
			c0.518-3.248,1.745-6.208,3.666-8.856c-3.884,1.124-7.46,1.437-10.2,1.443c1.627,1.688,2.922,4.107,2.951,7.533
			C27.854,194.694,29.288,206.17,22.756,215.688z" style="fill:#CCCCDE;"></path>
	</g>
	<g>
		<path d="M23.076,167.128" style="fill:#D57E58;"></path>
	</g>
	<path d="M36.558,183.55c0,0-12.709,16.41-2.942,33.639h6.2
		C39.816,217.188,26.918,199.162,36.558,183.55z" style="opacity:0.11;fill:#6E6E96;enable-background:new    ;"></path>
</g>
<rect height="26.969" width="256" style="fill:#F0F0FF;" y="215.5"></rect>
<rect height="3" width="256" style="fill:#CCCCDE;" y="214"></rect>
<rect height="3" width="256" style="fill:#CCCCDE;" y="240.969"></rect>
<rect height="3" width="10.5" style="fill:#CCCCDE;" y="227.5"></rect>
<rect height="3" width="13" style="fill:#CCCCDE;" y="227.5" x="25.5"></rect>
<g style="display:none;" id="Layer_2">
	<g style="display:inline;">
		<path d="M137.58,30.971
			c-15.923-5.748-33.558-7.401-51.385-3.937C33.578,37.261-0.788,88.206,9.439,140.822" style="fill:none;stroke:#F59FB3;stroke-width:10;stroke-linecap:round;stroke-linejoin:round;"></path>
		<path d="M182.871,77.908
			c-18.545-32.676-56.474-51.438-95.392-43.872C53.457,40.648,27.67,65.63,18.41,96.692" style="fill:none;stroke:#FFFF75;stroke-width:10;stroke-linecap:round;stroke-linejoin:round;"></path>
		<path d="M161.523,62.501
			c-18.646-17.629-45.228-26.313-72.333-21.044c-35.735,6.944-61.546,36.031-65.964,70.26" style="fill:none;stroke:#AFEB75;stroke-width:10;stroke-linecap:round;stroke-linejoin:round;"></path>
		<path d="M175.344,97.582
			c-12.027-34.471-47.85-55.784-84.741-48.615c-19.632,3.816-35.963,14.998-46.68,30.121" style="fill:none;stroke:#75D5EB;stroke-width:10;stroke-linecap:round;stroke-linejoin:round;"></path>
	</g>
</g>
<g id="Layer_5">
</g>
<g id="Layer_6">
</g>
<g id="Layer_7">
</g>
<rect height="3" width="10.5" style="fill:#CCCCDE;" y="227.5" x="118"></rect>
<rect height="3" width="13.5" style="fill:#CCCCDE;" y="227.5" x="142.5"></rect>
<rect height="3" width="9.825" style="fill:#CCCCDE;" y="228" x="185.175"></rect>
<g>
	<g>
		<path d="M240.318,207.593c0.312,1.967-1.062,3.573-3.053,3.573h-25.082c-1.988,0-3.302-1.599-2.916-3.549
			l2.217-11.23c0.386-1.95,2.328-3.549,4.317-3.549h18.569c1.99,0,3.871,1.607,4.184,3.573L240.318,207.593z" style="fill:#E0F8FF;"></path>
		<path d="M237.266,212.666h-25.082c-1.398,0-2.677-0.58-3.508-1.591c-0.83-1.011-1.151-2.378-0.88-3.749
			l2.217-11.229c0.528-2.669,3.07-4.759,5.789-4.759h18.569c2.745,0,5.233,2.125,5.665,4.838l1.764,11.184
			c0.217,1.37-0.148,2.73-1.004,3.731C239.941,212.092,238.654,212.666,237.266,212.666z M215.802,194.338
			c-1.27,0-2.6,1.094-2.846,2.34l-2.217,11.229c-0.098,0.496-0.008,0.944,0.255,1.264s0.685,0.495,1.189,0.495h25.082
			c0.518,0,0.961-0.187,1.25-0.524c0.288-0.337,0.402-0.804,0.321-1.314l-1.764-11.183c-0.195-1.228-1.458-2.307-2.702-2.307
			H215.802z" style="fill:#CCCCDE;"></path>
	</g>
	<g>
		<path d="M246.913,220.572c0,1.989-1.628,3.618-3.618,3.618h-39.792c-1.989,0-3.617-1.629-3.617-3.618
			v-7.958c0-1.99,1.628-3.617,3.617-3.617h39.792c1.99,0,3.618,1.627,3.618,3.617V220.572L246.913,220.572z" style="fill:#FFF2C4;"></path>
		<path d="M243.295,225.69h-39.792c-2.821,0-5.117-2.296-5.117-5.118v-7.958c0-2.821,2.296-5.117,5.117-5.117
			h39.792c2.822,0,5.118,2.296,5.118,5.117v7.958C248.413,223.395,246.117,225.69,243.295,225.69z M203.503,210.497
			c-1.167,0-2.117,0.95-2.117,2.117v7.958c0,1.168,0.95,2.118,2.117,2.118h39.792c1.168,0,2.118-0.95,2.118-2.118v-7.958
			c0-1.167-0.95-2.117-2.118-2.117H203.503z" style="fill:#CCCCDE;"></path>
	</g>
	<g>
		<circle r="6.709" cy="222.457" cx="211.418" style="fill:#E7E7FC;"></circle>
		<path d="M211.418,230.666c-4.526,0-8.209-3.683-8.209-8.209s3.683-8.209,8.209-8.209
			s8.209,3.683,8.209,8.209S215.944,230.666,211.418,230.666z M211.418,217.248c-2.872,0-5.209,2.337-5.209,5.209
			s2.337,5.209,5.209,5.209s5.209-2.337,5.209-5.209S214.29,217.248,211.418,217.248z" style="fill:#CCCCDE;"></path>
	</g>
	<g>
		<circle r="6.709" cy="222.457" cx="235.143" style="fill:#E7E7FC;"></circle>
		<path d="M235.143,230.666c-4.526,0-8.209-3.683-8.209-8.209s3.683-8.209,8.209-8.209
			s8.209,3.683,8.209,8.209S239.669,230.666,235.143,230.666z M235.143,217.248c-2.872,0-5.209,2.337-5.209,5.209
			s2.337,5.209,5.209,5.209s5.209-2.337,5.209-5.209S238.015,217.248,235.143,217.248z" style="fill:#CCCCDE;"></path>
	</g>
	<rect height="16.158" width="3" style="fill:#CCCCDE;" y="192.838" x="223.467"></rect>
</g>
<rect height="3" width="13" style="fill:#CCCCDE;" y="227.5" x="53"></rect>
<rect height="3" width="13" style="fill:#CCCCDE;" y="227.5" x="78.5"></rect>
<g>
	<g>
		<rect height="62.112" width="16.419" style="fill:#DDDDEB;" y="185.935" x="157.756"></rect>
		<path d="M175.675,249.547h-19.419v-65.112h19.419V249.547z M159.256,246.547h13.419v-59.112h-13.419
			V246.547z" style="fill:#6E6E96;"></path>
	</g>
	<g>
		<rect height="62.112" width="16.417" style="fill:#DDDDEB;" y="185.935" x="92.359"></rect>
		<path d="M110.276,249.547H90.859v-65.112h19.417V249.547z M93.859,246.547h13.417v-59.112H93.859V246.547z" style="fill:#6E6E96;"></path>
	</g>
	<g>
		<rect height="105.003" width="157.512" style="fill:#FFFFFF;" y="81.346" x="54.02"></rect>
		<path d="M211.532,187.849H54.02c-0.829,0-1.5-0.672-1.5-1.5V81.346c0-0.829,0.671-1.5,1.5-1.5h157.512
			c0.828,0,1.5,0.671,1.5,1.5v105.003C213.032,187.177,212.36,187.849,211.532,187.849z M55.52,184.849h154.512V82.846H55.52
			V184.849z" style="fill:#6E6E96;"></path>
	</g>
	<g>
		<rect height="90.818" width="144.055" style="fill:#FFE3B0;" y="88.276" x="60.752"></rect>
		<path d="M204.807,180.594H60.752c-0.829,0-1.5-0.672-1.5-1.5V88.276c0-0.829,0.671-1.5,1.5-1.5h144.055
			c0.828,0,1.5,0.671,1.5,1.5v90.818C206.307,179.922,205.635,180.594,204.807,180.594z M62.252,177.594h141.055V89.776H62.252
			V177.594z" style="fill:#6E6E96;"></path>
	</g>
	<g>
		<g>
			<path d="M130.223,111.5c5.635,15.219-2.946,32.312-18.897,38.074c-15.951,5.765-33.353-1.938-38.87-17.202
				c-5.515-15.265,2.945-32.31,18.897-38.075C107.304,88.534,122.043,89.426,130.223,111.5z" style="fill:#B89289;"></path>
		</g>
		<g>
			<path d="M73.996,126.178c0,0-0.687-25.588,26.386-29.291c0,0,13.157-4.041,23.083,3.988
				c0,0-10.121-20.734-38.473-2.85C66.471,109.709,73.996,126.178,73.996,126.178z" style="fill:#C79E94;"></path>
		</g>
		<g>
			<path d="M129.02,111.946c2.496,6.744,2.156,14.149-0.957,20.854c-3.32,7.15-9.579,12.826-17.173,15.569
				c-15.26,5.515-31.96-1.857-37.228-16.433c-5.267-14.573,2.866-30.917,18.126-36.433
				C110.782,88.642,122.265,93.712,129.02,111.946z M90.916,93.092c-16.591,5.996-25.413,23.813-19.667,39.716
				c5.748,15.905,23.922,23.969,40.511,17.974c8.232-2.976,15.022-9.136,18.629-16.902c3.403-7.329,3.771-15.435,1.034-22.824
				C124.158,91.441,111.286,85.733,90.916,93.092z" style="fill:#6E6E96;"></path>
		</g>
		<g>
			<path d="M100.211,151.03c0,0,7.533,1.221,7.251-4.25l-0.143-2.735l6.336-0.326
				c0,0-0.145,6.829,5.264,6.552c0,0,5.762,11.357-1.179,13.881C110.798,166.674,100.395,154.608,100.211,151.03z" style="fill:#F9E6D4;"></path>
		</g>
		<g>
			<path d="M100.006,152.297c0.479,0.077,4.753,0.694,7.183-1.481c0.771-0.69,1.664-1.961,1.555-4.101
				c0-0.002-0.144-2.737-0.144-2.737l-1.214,1.349l6.337-0.325l-1.349-1.309c-0.004,0.164-0.059,4.087,2.259,6.334
				c1.135,1.102,2.6,1.613,4.352,1.522l-1.209-0.7c0.889,1.76,2.937,6.99,1.736,10.021c-0.396,0.999-1.118,1.677-2.21,2.072
				c-2.373,0.863-5.224-0.517-7.198-1.823c-4.838-3.206-8.531-8.577-8.611-10.154L100.006,152.297z M118.178,165.354
				c1.796-0.652,3.049-1.846,3.719-3.543c1.87-4.728-1.682-11.822-1.834-12.123l-0.376-0.743l-0.833,0.043
				c-1.024,0.054-1.819-0.207-2.429-0.798c-1.258-1.213-1.5-3.623-1.486-4.447l0.021-1.372c0-0.003-1.371,0.065-1.371,0.065
				l-6.335,0.326l-1.281,0.065l0.067,1.283l0.143,2.735c0.047,0.915-0.183,1.588-0.702,2.057c-1.291,1.158-4.094,1.015-5.066,0.859
				l-0.101-0.015c-0.001-0.001-0.103-0.001-0.103-0.001h-1.35l0.07,1.348c0.153,2.977,4.985,9,9.756,12.161
				C112.224,165.601,115.504,166.325,118.178,165.354z" style="fill:#6E6E96;"></path>
		</g>
		<g>
			<path d="M122.962,107.879c-7.197-9.493-16.453-13.83-32.142-1.936
				c-16.213,12.297-16.837,23.578-4.863,32.103c10.621,7.564,24.737,11.637,30.634,4.792
				C124.743,133.374,131.014,118.496,122.962,107.879z" style="fill:#F9E6D4;"></path>
		</g>
		<g style="opacity:0.39;">
			<path d="M122.393,107.595c-7.197-9.493-16.454-13.829-32.143-1.937
				c-16.214,12.297-16.836,23.577-4.865,32.104c10.621,7.564,24.738,11.638,30.635,4.792
				C124.174,133.088,130.443,118.211,122.393,107.595z M114.631,138.206c-8.266,9.689-29.638-8.266-29.638-8.266
				c7.314-7.313,14.533-24.506,14.533-24.506c1.779,2.466,17.384,2.28,17.384,2.28C125.136,111.498,122.895,128.519,114.631,138.206
				z" style="fill:#E8B98E;"></path>
		</g>
		<g>
			<path d="M123.984,107.104c-4.326-5.707-8.882-8.817-13.932-9.512c-5.889-0.811-12.433,1.588-20.006,7.33
				c-9.128,6.922-13.708,13.742-13.61,20.268c0.078,5.133,3.029,9.811,8.774,13.902c11.179,7.96,25.881,12.091,32.349,4.584
				C126.604,133.18,132.096,117.802,123.984,107.104z M115.619,142.001c-5.409,6.277-18.938,2.109-28.919-4.999
				c-5.043-3.592-7.634-7.579-7.698-11.851c-0.085-5.665,4.152-11.784,12.594-18.187c7.004-5.311,12.927-7.545,18.107-6.832
				c4.401,0.605,8.289,3.313,12.238,8.521C129.188,118.211,123.986,132.288,115.619,142.001z" style="fill:#6E6E96;"></path>
		</g>
		<g>
			<path d="M90.783,159.89c0,0-2.435,5.137-3.596,19.122C86.949,181.892,99.468,152.931,90.783,159.89z" style="fill:#FFFFFF;"></path>
		</g>
		<g>
			<path d="M90.7,159.47c-0.46,0.094-2.807,5.891-3.937,19.508c-0.041,0.487,0.21,0.637,0.362,0.682
				c0.319,0.094,0.718,0.21,2.776-3.657c0.61-1.147,5.911-15.91,3.92-17.562c-0.842-0.697-2.289,0.303-3.304,1.115L90.7,159.47z
				 M87.614,179.048c1.08-13.002,3.274-18.742,3.297-18.752c0,0-0.016,0.006-0.045,0.014l0.102-0.021l0.082-0.065
				c1.609-1.289,2.105-1.18,2.188-1.146c0.125,0.052,0.165,0.319,0.177,0.433c0.321,3.114-5.378,18.719-6.3,19.352
				c0.04-0.028,0.169-0.065,0.306-0.002c0.135,0.065,0.188,0.188,0.191,0.238C87.612,179.096,87.611,179.082,87.614,179.048z" style="fill:#6E6E96;"></path>
		</g>
		<g>
			<path d="M94.529,99.062c0,0,13.798,5.591,27.854,3.028C122.383,102.09,104.68,87.808,94.529,99.062z" style="fill:#B89289;"></path>
		</g>
		<g>
			<path d="M100.284,96.391c0,0-6.009,19.524-25.9,38.157c0,0-1.371-13.174,5.822-28.715
				C84.456,96.65,100.284,96.391,100.284,96.391z" style="fill:#B89289;"></path>
		</g>
		<g>
			<path d="M98.261,96.678L98.261,96.678c-0.076,0.217-7.807,21.891-24.732,36.892l0,0
				c-0.53,0.469-0.579,1.279-0.109,1.811c0.469,0.528,1.28,0.578,1.81,0.107l0,0c17.438-15.455,25.132-37.051,25.452-37.963l0,0
				c0.233-0.668-0.118-1.399-0.787-1.633C99.227,95.656,98.496,96.009,98.261,96.678L98.261,96.678z" style="fill:#6E6E96;"></path>
		</g>
		<g>
			<path d="M97.636,101.446c0.436,0.211,10.886,5.136,28.179,1.938l0,0c0.696-0.129,1.156-0.799,1.028-1.494
				c-0.129-0.696-0.797-1.156-1.496-1.027l0,0c-16.474,3.043-26.495-1.68-26.595-1.729l0,0c-0.637-0.308-1.405-0.042-1.713,0.597
				C96.732,100.369,97,101.137,97.636,101.446L97.636,101.446z" style="fill:#6E6E96;"></path>
		</g>
		<g>
			<path d="M97.719,160.437c1.466,5.648-2.194,14.158-2.194,14.158c0.587,1.096,2.751,2.022,3.371,2.889
				c0.371,0.518,0.679,1.039,0.939,1.564h29.263c0.271-0.695,0,0,0,0c4.396-9.029-0.733-23.994-8.271-28.799
				c-0.636-0.284-1.314-0.296-1.735-0.082c-2.899,1.47-0.31,6.732-3.003,9.893c-5.142,6.032-9.769-9.987-16.524-9.199
				c-0.344,0.019-0.672,0.049-0.987,0.09c0,0,0,0-0.002,0c-1.805-0.03-6.485,1.949-8.848,6.604
				C89.728,157.555,96.254,154.789,97.719,160.437z" style="fill:#FFFFFF;"></path>
		</g>
		<g style="opacity:0.15;">
			<path d="M102.929,174.501c0,0,39.02-0.83,17.376-23.082c0,0,15.396,12.257,7.639,27.066h-26.199
				L102.929,174.501z" style="fill:#6E6E96;"></path>
		</g>
		<g>
			<path d="M96.479,160.759c1.272,4.904-1.853,12.922-1.884,12.956c-0.38,0.4-0.461,1-0.199,1.486
				c0.474,0.886,1.409,1.524,2.313,2.144c0.422,0.288,1.001,0.687,1.145,0.885c0.313,0.438,0.586,0.893,0.832,1.39
				c0.216,0.437,0.663,0.714,1.149,0.714h29.263c0.529,0,1.004-0.325,1.194-0.821l0.12-0.308c0.257-0.661-0.071-1.405-0.732-1.66
				c-0.658-0.256-1.402,0.072-1.659,0.732l-0.119,0.31c-0.248,0.642,0.053,1.363,0.682,1.64c0.631,0.273,1.367,0.004,1.666-0.615
				c4.704-9.659-0.746-25.35-8.732-30.441c-0.053-0.034-0.109-0.064-0.167-0.089c-0.965-0.431-2.051-0.453-2.835-0.058
				c-2.167,1.1-2.231,3.468-2.286,5.556c-0.046,1.696-0.093,3.45-1.115,4.649c-0.78,0.916-1.29,0.912-1.457,0.91
				c-1.315-0.009-3.201-2.277-4.864-4.281c-2.612-3.147-5.572-6.713-9.376-6.27c-0.282,0.012-0.647,0.045-1.004,0.09
				c0.055-0.007,0.109-0.01,0.165-0.01c-2.16-0.036-7.334,2.068-9.993,7.309c-0.244,0.479-0.162,1.062,0.206,1.455
				c0.368,0.394,0.941,0.518,1.437,0.308c0.766-0.32,3.1-0.985,4.648-0.218C95.664,158.911,96.189,159.646,96.479,160.759z
				 M90.87,158.136c2.134-4.203,6.361-5.927,7.683-5.904c0.063,0,0.127-0.002,0.188-0.011c0.292-0.038,0.591-0.063,0.889-0.079
				c2.502-0.291,4.991,2.707,7.187,5.353c2.217,2.671,4.313,5.192,6.822,5.209c1.241,0.007,2.395-0.603,3.425-1.813
				c1.607-1.888,1.672-4.303,1.726-6.242c0.053-1.991,0.157-2.971,0.881-3.336c-0.01,0.004-0.015,0.006-0.015,0.006
				c0.073-0.024,0.338-0.035,0.648,0.104c-0.057-0.025-0.113-0.055-0.167-0.089c7.038,4.487,11.882,18.783,7.806,27.156
				c0.301-0.619,1.036-0.89,1.665-0.614c0.631,0.273,0.932,0.998,0.684,1.638l0.12-0.308c0.255-0.662-0.072-1.406-0.731-1.661
				c-0.66-0.255-1.404,0.072-1.66,0.731l-0.119,0.311c0.189-0.494,0.666-0.818,1.195-0.818H99.835c0.486,0,0.932,0.275,1.148,0.711
				c-0.308-0.621-0.65-1.188-1.046-1.742c-0.406-0.566-1.074-1.022-1.781-1.508c-0.559-0.381-1.323-0.902-1.501-1.236
				c0.261,0.486,0.18,1.087-0.2,1.488c0.17-0.18,4.13-9.1,2.505-15.363c-0.482-1.856-1.477-3.168-2.958-3.898
				c-2.923-1.443-6.62,0.094-6.776,0.158c0.497-0.21,1.071-0.088,1.438,0.307C91.032,157.074,91.114,157.656,90.87,158.136z" style="fill:#6E6E96;"></path>
		</g>
		<g>
			<path d="M101.745,179.048c0.031-2.096-0.081-4.402-0.243-7.324c-0.306-5.51-4.443-15.971-7.909-16.201
				c-3.467-0.231-6.157,4.088-6.944,9.551c-0.357,2.484-0.312,10.406-0.009,13.976L101.745,179.048L101.745,179.048z" style="fill:#F9E6D4;"></path>
		</g>
		<g>
			<path d="M110.048,120.413c0,0.001,0,0.001,0,0.003c-0.097-0.965-0.076-3.92,1.249-4.814
				c1.033-0.695,2.83-0.012,4.155,0.686l0,0c0.626,0.33,1.401,0.088,1.731-0.537c0.329-0.628,0.089-1.402-0.538-1.732l0,0
				c-2.832-1.488-5.117-1.67-6.79-0.537c-2.823,1.912-2.414,6.664-2.359,7.199l0,0c0.074,0.705,0.705,1.217,1.408,1.143
				C109.611,121.749,110.122,121.119,110.048,120.413L110.048,120.413z" style="fill:#6E6E96;"></path>
		</g>
		<g>
			<path d="M95.595,128.353c0,0,0,0,0,0.002c-0.096-0.965-0.068-3.92,1.258-4.812
				c1.034-0.694,2.828-0.005,4.152,0.694l0,0c0.627,0.331,1.403,0.092,1.732-0.535c0.332-0.625,0.092-1.402-0.534-1.732l0,0
				c-2.829-1.494-5.113-1.68-6.789-0.551c-2.827,1.906-2.428,6.66-2.373,7.195l0,0c0.072,0.704,0.702,1.217,1.405,1.146
				C95.153,129.685,95.667,129.056,95.595,128.353L95.595,128.353z" style="fill:#6E6E96;"></path>
		</g>
		<g>
			<path d="M106.7,136.903c2.765,0.518,8.508-0.348,10.449-7.33l0,0c0.189-0.682-0.21-1.389-0.892-1.578
				c-0.684-0.189-1.39,0.209-1.579,0.893l0,0c-1.757,6.317-6.928,5.596-7.512,5.493l0.292,0.089l-0.285-0.088
				c-0.695-0.131-1.366,0.328-1.496,1.023C105.545,136.103,106.003,136.772,106.7,136.903L106.7,136.903z" style="fill:#6E6E96;"></path>
		</g>
		<g style="opacity:0.25;">
			<path d="M81.83,145.203c-18.892-14.011-6.811-36.35-6.811-36.35s-11.099,40.059,28.782,38.438
				c32.768-1.332,19.665-47.557,19.665-47.557s29.697,42.524-18.956,51.08C93.887,152.685,86.53,148.688,81.83,145.203z" style="fill:#6E6E96;"></path>
		</g>
		<g style="opacity:0.25;">
			<path d="M73.996,126.178c0,0,19.999-14.184,25.9-30.287c0,0-9.532,27.913-24.044,37.252L73.996,126.178z" style="fill:#6E6E96;"></path>
		</g>
		<g style="opacity:0.39;">
			<path d="M93.507,156.801c0,0,3.598,3.343,3.598,9.618s0,7.643,0,7.643h-9.422v3.703h12.913
				C100.594,177.765,103.801,160.221,93.507,156.801z" style="fill:#E8B98E;"></path>
		</g>
		<g>
			<path d="M103.028,179.067c0.031-2.187-0.093-9.301-0.247-12.063c-0.334-6.041-4.927-12.481-9.104-12.761
				c-4.008-0.27-7.343,4.011-8.298,10.646c-0.347,2.416-0.354,10.303-0.017,14.267l0.1,1.175h1.178h15.105h1.264L103.028,179.067z
				 M87.918,178.94c-0.321-3.771-0.321-11.459,0-13.685c0.729-5.067,3.08-8.622,5.589-8.455c2.634,0.177,6.436,9.972,6.714,14.994
				c0.15,2.714,0.272,5.13,0.241,7.234l1.282-1.265H86.639L87.918,178.94z" style="fill:#6E6E96;"></path>
		</g>
		<g style="opacity:0.39;">
			<path d="M108.792,155.854c0,0,0.686-7.644,7.643-3.821l-3.219-3.218l-5.429,1.347l-2.576,1.774
				L108.792,155.854z" style="fill:#E8B98E;"></path>
		</g>
	</g>
	<g style="opacity:0.5;">
		<rect height="4.103" width="41.848" style="fill:#6E6E96;" y="118.091" x="148.668"></rect>
	</g>
	<g style="opacity:0.5;">
		<rect height="4.104" width="25.027" style="fill:#6E6E96;" y="130.399" x="157.078"></rect>
	</g>
	<g style="opacity:0.5;">
		<rect height="4.104" width="36.926" style="fill:#6E6E96;" y="142.707" x="151.129"></rect>
	</g>
	<rect height="6.946" width="143.233" style="opacity:0.15;fill:#6E6E96;enable-background:new    ;" y="171.863" x="61.573"></rect>
	<rect height="6.154" width="16.417" style="opacity:0.15;fill:#6E6E96;enable-background:new    ;" y="186.349" x="92.359"></rect>
	<rect height="6.154" width="16.419" style="opacity:0.15;fill:#6E6E96;enable-background:new    ;" y="186.349" x="157.756"></rect>
	<g>
		<rect height="9.002" width="31.591" style="fill:#DDDDEB;" y="239.045" x="84.765"></rect>
		<path d="M116.356,249.547H84.765c-0.829,0-1.5-0.672-1.5-1.5v-9.002c0-0.828,0.671-1.5,1.5-1.5h31.591
			c0.829,0,1.5,0.672,1.5,1.5v9.002C117.856,248.875,117.185,249.547,116.356,249.547z M86.265,246.547h28.591v-6.002H86.265
			V246.547z" style="fill:#6E6E96;"></path>
	</g>
	<g>
		<rect height="9.002" width="31.59" style="fill:#DDDDEB;" y="239.045" x="150.436"></rect>
		<path d="M182.025,249.547h-31.59c-0.828,0-1.5-0.672-1.5-1.5v-9.002c0-0.828,0.672-1.5,1.5-1.5h31.59
			c0.828,0,1.5,0.672,1.5,1.5v9.002C183.525,248.875,182.854,249.547,182.025,249.547z M151.936,246.547h28.59v-6.002h-28.59
			V246.547z" style="fill:#6E6E96;"></path>
	</g>
	<rect height="9.002" width="12.717" style="opacity:0.15;fill:#6E6E96;enable-background:new    ;" y="239.045" x="169.309"></rect>
	<rect height="9.002" width="11.488" style="opacity:0.15;fill:#6E6E96;enable-background:new    ;" y="239.045" x="104.868"></rect>
	<rect height="45.336" width="2.686" style="opacity:0.39;fill:#FFFFFF;enable-background:new    ;" y="192.503" x="93.567"></rect>
	<rect height="45.336" width="2.686" style="opacity:0.39;fill:#FFFFFF;enable-background:new    ;" y="192.503" x="159.236"></rect>
</g>
</svg>
