<svg t="1642000622848" viewBox="0 0 1024 1024" version="1.1" xmlns="http://www.w3.org/2000/svg" p-id="17023" width="64" height="64"><path d="M512 77.6c-240 0-434.4 188.8-434.4 422.4 0 120.8 52.8 230.4 136 307.2-18.4 28-40.8 52-66.4 72.8h1.6c-9.6 6.4-15.2 16.8-15.2 29.6 0 16 10.4 28.8 24 32.8 17.6 2.4 35.2 4 52.8 4 21.6 0 43.2-2.4 64-5.6 12.8-2.4 25.6-4.8 37.6-8.8 32-9.6 63.2-24 63.2-24l9.6-4.8c20.8 8 48.8 12.8 72 15.2 6.4 0.8 12.8 1.6 19.2 1.6 14.4 0.8 24.8 1.6 24.8 1.6h10.4c240 0 434.4-188.8 434.4-422.4C946.4 266.4 752 77.6 512 77.6z" fill="#8590a6" p-id="17024"></path></svg>