<svg xml:space="preserve" style="enable-background:new 0 0 215.35 253.189;" viewBox="0 0 215.35 253.189" height="253.189px" width="215.35px" y="0px" x="0px" xmlns:xlink="http://www.w3.org/1999/xlink" xmlns="http://www.w3.org/2000/svg" id="Layer_1" version="1.1">
<path d="M34.609,177.192c0,0,13.96,33.059,3.812,73.656h56.625l15.492-52.352L34.609,177.192z" style="fill:#FFC4C4;"></path>
<path d="M30.349,131.864c-10.27-10.495-16.815-22.995-20.857-35.828C5.04,81.902,3.627,67.365,3.627,54.652
	l24.843-3.713c9.238,18.182,21.247,34.231,37.653,45.287L30.349,131.864z" style="fill:#569F7C;"></path>
<path d="M169.516,189.796l-0.005,0.001c3.646-7.841,5.58-17.687,5.58-30.023
	c0-39.792-29.896-72.05-66.773-72.05s-79.309,32.258-79.309,72.05c0,23.471,27.874,40.961,47.966,50.421h-0.001l0.002,0.001
	c2.391,1.125,4.848,2.138,7.354,3.031c10.331,4.518,28.51,13.49,34.138,22.871c8.014,13.354,8.014,13.354,8.014,13.354l61.149-5.622
	c-12.121-13.14-13.121-33.14-18.196-49.556C168.878,191.676,168.534,190.113,169.516,189.796z" style="fill:#FFC4C4;"></path>
<g style="opacity:0.09;enable-background:new    ;">
	<path d="M164.66,119.353c0.177-7.978,1.2-16.343,3.295-25.167L51.648,87.432c0,0-1.724,2.346-4.213,6.488
		c-8.042,34.927,27.806,45.436,58.872,50.979C133.176,149.695,153.104,134.911,164.66,119.353z"></path>
</g>
<g style="opacity:0.09;enable-background:new    ;">
	<path d="M6.272,69.17c0,0,6.597-0.687,7.206-4.924c0,0,3.75,3.586,6.894,3.115c3.145-0.47,2.922-3.339,2.922-3.339
		s7.976,3.764,10.887-2.75l-1.41-2.394L13.637,60.74l-7.812,5.741L6.272,69.17z"></path>
</g>
<path d="M38.634,249.962c0,0,75.972-7.88,37.986-33.725c0,0,25.354,5.534,23.629,17.027l-5.734,17.852
	L38.634,249.962z" style="fill:#D1A1A1;"></path>
<path d="M41.907,213.109c0,0,8.539,12.689,25.268,10.986c16.728-1.704-7.505,20.87-25.252,25.936
	c0,0,48.087,1.271,45.92-22.832s-45.724-24.143-52.696-48.623C35.146,178.575,42.062,196.08,41.907,213.109z" style="fill:#EDB6B6;"></path>
<path d="M122.643,243.055c0,0-19.434-31.426,11.531-36.96c30.965-5.535,48.75,31.463,48.75,31.463
	s-8.75-18.463-13.909-45.375c-1.993-10.398-139.986-31.335-139.986-31.335s0.474,30.514,46.979,49.042
	C114.175,225.095,122.643,243.055,122.643,243.055z" style="fill:#D1A1A1;"></path>
<g>
	<g>
		<path d="M211.01,69.432l-31.273-3.972c-3.861,11.584-5.292,13.184-11.779,22.994
			c0.011-4.271-1.184,4.636,0,0L51.65,82.175c0,0-36.495,26.917-28.481,67.517c0,0,12.311,54.856,141.351,43.104
			c0,0,27.104-0.025,21.939-34.019C182.315,127.319,208.547,124.073,211.01,69.432z" style="fill:#569F7C;"></path>
	</g>
	<defs>
		<filter height="128.985" width="188.992" y="65.461" x="22.018" filterUnits="userSpaceOnUse" id="Adobe_OpacityMaskFilter">
			<feColorMatrix values="1 0 0 0 0  0 1 0 0 0  0 0 1 0 0  0 0 0 1 0" type="matrix"></feColorMatrix>
		</filter>
	</defs>
	<g style="opacity:0.14;">
		<path d="M211.01,69.432l-31.273-3.972c-3.861,11.584-5.292,13.184-11.779,22.994
			c0.011-4.271-1.184,4.636,0,0L51.65,82.175c0,0-36.495,26.917-28.481,67.517c0,0,12.311,54.856,141.351,43.104
			c0,0,27.104-0.025,21.939-34.019C182.315,127.319,208.547,124.073,211.01,69.432z" style="fill:#569F7C;"></path>
	</g>
</g>
<path d="M29.872,161.942c0,0,29.323,32.438,72.303,39.153c32,5,59.932-12.5,69.716,4l-3.181-12.844
	L29.872,161.942z" style="fill:#B88D8D;"></path>
<path d="M32.626,103.409c0,0,4.549,54.187,50.049,54.187s69.5,1.5,69.5-19.5
	c0-21.001,55.114-37.001,55.114-62.001c0,0-2.114,20.5-19.614,47c-17.5,26.501-12.5,62.001-45.5,62.001
	S5.977,185.723,32.626,103.409z" style="fill:#519674;"></path>
<path d="M211.01,69.432l-4.281-0.543c1.856,21.392-10.037,38.771-26.554,48.707
	c-7.878,9.117-17.597,10.354-16.107,23.447c0.007,0.061,0.014,0.121,0.02,0.182c0.002,0.019,0.003,0.034,0.005,0.054
	c4.721,33.992-20.049,34.019-20.049,34.019c-99.588,9.926-111.338-27.656-112.585-39.583c-0.246-2.187-0.104-3.521-0.104-3.521
	c-1.913-10.607-1.047-20.278,1.273-28.782c-7.334,11.618-13.169,27.481-9.459,46.282c0,0,12.311,54.856,141.351,43.104
	c0,0,27.104-0.025,21.939-34.019C182.315,127.319,208.547,124.073,211.01,69.432z" style="fill:#4C8C6D;"></path>
<g style="opacity:0.09;enable-background:new    ;">
	<path d="M213.609,71.224c-0.771-2.081-1.681-3.96-2.271-5.104h-3.649l-26.439,10.03c0,0,4.53,12.426,12.251,1.884
		c0,0,3.414,10.021,11.355,1.112c0,0,1.477,0.658,4.468,0.908C210.939,77.247,213.005,75.957,213.609,71.224z"></path>
</g>
<g>
	<g>
		<path d="M166.292,81.364c5.763,36.792-33.3,62.742-63.059,59.724
			c-46.669-4.734-71.642-21.014-64.889-65.065c5.563-36.301,31.866-61.273,64.889-61.273
			C136.254,14.747,160.611,45.084,166.292,81.364z" style="fill:#4C8C6D;"></path>
	</g>
	<defs>
		<filter height="126.577" width="129.609" y="14.749" x="37.255" filterUnits="userSpaceOnUse" id="Adobe_OpacityMaskFilter_1_">
			<feColorMatrix values="1 0 0 0 0  0 1 0 0 0  0 0 1 0 0  0 0 0 1 0" type="matrix"></feColorMatrix>
		</filter>
	</defs>
	<g style="opacity:0.34;">
		<path d="M166.292,81.364c5.763,36.792-33.3,62.742-63.059,59.724
			c-46.669-4.734-71.642-21.014-64.889-65.065c5.563-36.301,31.866-61.273,64.889-61.273
			C136.254,14.747,160.611,45.084,166.292,81.364z" style="fill:#4C8C6D;"></path>
	</g>
</g>
<path d="M214.316,65.958c-1.396-5.629-7.563-10.546-15.587-11.83c-9.847-1.573-18.749,2.923-19.89,10.046
	c-0.071,0.455-0.104,0.884-0.104,1.287c-0.142,0.502-0.264,1.021-0.351,1.559c-0.819,5.132,1.38,9.751,4.914,10.315
	c2.653,0.424,6.876-1.298,8.382-4.479c0.515,0.086-0.535-0.084,0,0c0.438,3.49,2.34,6.193,4.987,6.617
	c2.212,0.354,4.422-0.963,5.967-3.255c0.755,2.659,2.445,4.6,4.654,4.953c3.533,0.564,7.065-3.136,7.888-8.27
	C215.594,70.301,215.231,67.834,214.316,65.958z" style="fill:#FFC4C4;"></path>
<g>
	<path d="M54.609,55.767c0.233,10.561-1.726,19.101-6.519,19.206c-2.385,0.053-0.127-6.536-4.73-11.923
		c-3.956-4.629-5.811-18.272-5.927-23.578c-0.232-10.56,5.752-15.662,7.36-5.19C45.946,41.771,54.376,45.207,54.609,55.767z" style="fill:#FFC4C4;"></path>
</g>
<g>
	<g>
		<path d="M166.792,72.864c5.763,36.792-33.3,62.742-63.059,59.724
			c-46.669-4.734-71.642-21.014-64.889-65.065c5.564-36.303,31.867-61.275,64.889-61.275
			C136.754,6.247,161.111,36.584,166.792,72.864z" style="fill:#E8B3B3;"></path>
	</g>
	<defs>
		<filter height="126.579" width="129.609" y="6.247" x="37.755" filterUnits="userSpaceOnUse" id="Adobe_OpacityMaskFilter_2_">
			<feColorMatrix values="1 0 0 0 0  0 1 0 0 0  0 0 1 0 0  0 0 0 1 0" type="matrix"></feColorMatrix>
		</filter>
	</defs>
	<g style="opacity:0.34;">
		<path d="M166.792,72.864c5.763,36.792-33.3,62.742-63.059,59.724
			c-46.669-4.734-71.642-21.014-64.889-65.065c5.564-36.303,31.867-61.275,64.889-61.275
			C136.754,6.247,161.111,36.584,166.792,72.864z" style="fill:#E8B3B3;"></path>
	</g>
</g>
<g>
	<g>
		<path d="M153.353,65.954c4.954,32.515-28.627,55.449-54.211,52.782
			c-40.121-4.186-61.589-18.571-55.784-57.503C48.141,29.151,70.754,7.081,99.142,7.081S148.469,33.892,153.353,65.954z" style="fill:#F0B8B8;"></path>
	</g>
	<defs>
		<filter height="114.671" width="111.711" y="7.081" x="42.043" filterUnits="userSpaceOnUse" id="Adobe_OpacityMaskFilter_3_">
			<feColorMatrix values="1 0 0 0 0  0 1 0 0 0  0 0 1 0 0  0 0 0 1 0" type="matrix"></feColorMatrix>
		</filter>
	</defs>
	<g style="opacity:0.34;">
		<path d="M153.353,60.094c4.954,32.516-37.095,64.168-62.679,61.5
			c-40.121-4.185-53.122-21.431-47.316-60.362C48.141,29.151,70.754,7.081,99.142,7.081S148.469,28.033,153.353,60.094z" style="fill:#F0B8B8;"></path>
	</g>
</g>
<g>
	<g>
		<path d="M142.175,48.094c3.995,31-26.882,51.679-47.513,49.526c-32.354-3.375-49.667-14.976-44.985-46.372
			C53.534,25.378,71.769,7.581,94.662,7.581C117.554,7.581,138.675,22.24,142.175,48.094z" style="fill:#FFC4C4;"></path>
	</g>
	<defs>
		<filter height="96.126" width="94.573" y="7.581" x="44.137" filterUnits="userSpaceOnUse" id="Adobe_OpacityMaskFilter_4_">
			<feColorMatrix values="1 0 0 0 0  0 1 0 0 0  0 0 1 0 0  0 0 0 1 0" type="matrix"></feColorMatrix>
		</filter>
	</defs>
	<g style="opacity:0.34;">
		<path d="M138.379,48.094c3.995,26.222-29.066,57.659-49.697,55.508
			c-32.354-3.375-48.428-18.793-43.746-50.189C48.792,27.542,75.769,7.581,98.662,7.581C121.554,7.581,134.44,22.24,138.379,48.094z" style="fill:#FFC4C4;"></path>
	</g>
</g>
<g style="opacity:0.12;enable-background:new    ;">
	<path d="M59.75,37.792c-0.104,11.008,5.477,11.188,15.575,11.75c10.098,0.563,17.477,1.07,17.587-9.938
		c0.104-11.012-5.521-20.897-15.612-21.46C67.199,17.585,59.858,26.781,59.75,37.792z" style="fill:#5A3D1C;"></path>
</g>
<g style="opacity:0.12;enable-background:new    ;">
	<path d="M101.248,40.416c-0.107,11.07,5.473,11.248,15.569,11.812c10.099,0.562,17.478,1.069,17.592-10.002
		c0.108-11.074-5.512-21.016-15.604-21.576C108.705,20.092,101.36,29.343,101.248,40.416z" style="fill:#5A3D1C;"></path>
</g>
<g>
	<path d="M64.43,28.314c-3.33,3.148-5.161,7.494-5.156,12.23l0,0c0.017,9.535,5.959,9.875,15.807,10.438
		l0.355,0.021c7.81,0.446,12.51-0.506,15.243-3.089c1.855-1.754,2.757-4.208,2.754-7.501c-0.018-9.635-6.265-15.976-16.306-16.55
		C72.266,23.588,67.756,25.168,64.43,28.314z" style="fill:#FFFFFF;"></path>
</g>
<g>
	<path d="M105.924,31c-3.329,3.149-5.16,7.494-5.154,12.231l0,0c0.016,9.535,5.959,9.875,15.809,10.438
		l0.354,0.021c8.523,0.487,14.213-0.734,17.393-3.74c1.858-1.758,2.802-4.128,2.799-7.045c-0.016-9.008-7.621-15.731-18.499-16.354
		C113.76,26.273,109.25,27.854,105.924,31z" style="fill:#FFFFFF;"></path>
</g>
<path d="M78.069,4.318c0.97,3.222-0.558,2.966-6.227,4.67c-5.669,1.705-13.333,4.723-14.301,1.502
	s6.106-8.194,11.775-9.899C74.987-1.113,77.101,1.098,78.069,4.318z" style="fill:#424242;"></path>
<path d="M117.808,5.034c-0.896,3.241,0.625,2.951,6.332,4.523c5.706,1.572,13.438,4.414,14.332,1.171
	c0.892-3.242-6.297-8.052-12.001-9.624C120.764-0.469,118.701,1.792,117.808,5.034z" style="fill:#424242;"></path>
<path d="M151.756,53.308c0,0,7.514,10.157,13.384,11.437c0,0-1.885-8.5-3.496-12.304L151.756,53.308z" style="fill:#DBA9A9;"></path>
<path d="M166.843,44.144c0,6.885-5.545,12.466-9.386,12.466c-3.839,0-11.172-7.024-6.953-12.466
	c5.339-6.886,2.339-17.838,10.158-17.838C164.503,26.305,166.843,37.258,166.843,44.144z" style="fill:#E8B3B3;"></path>
<g style="display:none;" id="Layer_4">
	
		<radialGradient gradientUnits="userSpaceOnUse" gradientTransform="matrix(1 0 0 1 -56.0225 -393.9355)" r="7.5101" cy="503.8191" cx="180.9163" id="SVGID_1_">
		<stop style="stop-color:#FFFFFF" offset="0.6011"></stop>
		<stop style="stop-color:#F0F0F0" offset="0.8764"></stop>
		<stop style="stop-color:#E0E0E0" offset="1"></stop>
	</radialGradient>
	<path d="M119.011,109.625c0,0,1.266-7.55,7.549-7.55
		c6.282,0,11.282,9.948-8.865,15.617L119.011,109.625z" style="display:inline;fill:url(#SVGID_1_);"></path>
	
		<radialGradient gradientUnits="userSpaceOnUse" gradientTransform="matrix(0.9249 0 0 1.0383 -74.2663 -391.6078)" r="7.6266" cy="482.3054" cx="169.6868" id="SVGID_2_">
		<stop style="stop-color:#FFFFFF" offset="0.6011"></stop>
		<stop style="stop-color:#F0F0F0" offset="0.8764"></stop>
		<stop style="stop-color:#E0E0E0" offset="1"></stop>
	</radialGradient>
	<path d="M76.144,105.628c0,0,1.011-4.605,5.432-3.562
		c8.582,2.027,12.722,16.015,3.387,14.199c-9.335-1.814-9.335-1.814-9.335-1.814S74.101,107.921,76.144,105.628z" style="display:inline;fill:url(#SVGID_2_);"></path>
	
		<radialGradient gradientUnits="userSpaceOnUse" gradientTransform="matrix(0.9903 0.1392 -0.1392 0.9903 -66.0209 -361.4771)" r="8.0074" cy="445.239" cx="226.802" id="SVGID_3_">
		<stop style="stop-color:#FFFFFF" offset="0.6011"></stop>
		<stop style="stop-color:#F0F0F0" offset="0.8764"></stop>
		<stop style="stop-color:#E0E0E0" offset="1"></stop>
	</radialGradient>
	<path d="M89.433,106.94c0,0,0.19-3.919,4.414-3.326
		c4.223,0.595,10.25-0.171,11.054,4.629c0.806,4.799,0.388,11.274-6.504,10.306c-6.893-0.969-10.521-1.479-10.521-1.479
		S86.037,114.486,89.433,106.94z" style="display:inline;fill:url(#SVGID_3_);"></path>
	
		<radialGradient gradientUnits="userSpaceOnUse" gradientTransform="matrix(1 0 0 0.8975 -56.0225 -400.4288)" r="5.5917" cy="556.1111" cx="115.9348" id="SVGID_4_">
		<stop style="stop-color:#FFFFFF" offset="0.6011"></stop>
		<stop style="stop-color:#F0F0F0" offset="0.8764"></stop>
		<stop style="stop-color:#E0E0E0" offset="1"></stop>
	</radialGradient>
	<path d="M56.186,92.667c0,0,11.467,1.492,6.817,7.683
		c-4.648,6.189-7.684,5.686-7.25-0.999C56.186,92.667,56.186,92.667,56.186,92.667z" style="display:inline;fill:url(#SVGID_4_);"></path>
	
		<radialGradient gradientUnits="userSpaceOnUse" gradientTransform="matrix(-1.1865 -0.1552 -0.02 1.0206 -413.825 -383.7188)" r="8.6495" cy="413.8113" cx="-412.1628" id="SVGID_5_">
		<stop style="stop-color:#FFFFFF" offset="0.6011"></stop>
		<stop style="stop-color:#F0F0F0" offset="0.8764"></stop>
		<stop style="stop-color:#E0E0E0" offset="1"></stop>
	</radialGradient>
	<path d="M75.357,109.593c0,0-0.015-22.287-8.086-15.34
		c0,0-15.933,10.505-5.334,16.201C70.209,114.9,75.609,113.097,75.357,109.593z" style="display:inline;fill:url(#SVGID_5_);"></path>
	
		<radialGradient gradientUnits="userSpaceOnUse" gradientTransform="matrix(1 0 0 1 -56.0225 -393.9355)" r="6.7088" cy="498.616" cx="191.6506" id="SVGID_6_">
		<stop style="stop-color:#FFFFFF" offset="0.6011"></stop>
		<stop style="stop-color:#F0F0F0" offset="0.8764"></stop>
		<stop style="stop-color:#E0E0E0" offset="1"></stop>
	</radialGradient>
	<path d="M130.703,103.766c0,0,2.277-10.585,10.482-5.292
		c0,0-1.869,9.141-10.262,13.896C130.926,112.371,129.159,107.508,130.703,103.766z" style="display:inline;fill:url(#SVGID_6_);"></path>
	
		<radialGradient gradientUnits="userSpaceOnUse" gradientTransform="matrix(-1 0 0 -0.7068 -542.2983 -572.9933)" r="10.1716" cy="-910.5793" cx="-630.0276" id="SVGID_7_">
		<stop style="stop-color:#FFFFFF" offset="0.6011"></stop>
		<stop style="stop-color:#F0F0F0" offset="0.8764"></stop>
		<stop style="stop-color:#E0E0E0" offset="1"></stop>
	</radialGradient>
	<path d="M76.068,67.176c0,0,6.772-2.464,11.935-2.464
		c5.16,0,11.389-0.74,11.389,3.011c0,3.75-6.229,8.835-11.389,8.835C82.841,76.557,76.068,70.926,76.068,67.176z" style="display:inline;fill:url(#SVGID_7_);"></path>
	
		<radialGradient gradientUnits="userSpaceOnUse" gradientTransform="matrix(1 0 0 1 -56.0225 -393.9355)" r="6.1646" cy="464.2439" cx="162.1926" id="SVGID_8_">
		<stop style="stop-color:#FFFFFF" offset="0.6011"></stop>
		<stop style="stop-color:#F0F0F0" offset="0.8764"></stop>
		<stop style="stop-color:#E0E0E0" offset="1"></stop>
	</radialGradient>
	<path d="M113.601,69.918c0,2.733-3.797,4.95-8.481,4.95
		c-4.686,0-6.332-2.217-6.332-4.95c0-2.732-0.769-4.168,3.917-4.168C107.389,65.75,113.601,67.185,113.601,69.918z" style="display:inline;fill:url(#SVGID_8_);"></path>
</g>
<path d="M116.439,107.223c-1.772,11.641-12.547,10.416-29.099,7.729
	c-16.554-2.687-32.431-8.279-30.338-22.019c3.073-20.202,18.479-29.843,35.033-27.156
	C108.588,68.466,119.512,87.022,116.439,107.223z" style="fill:#FFC4C4;"></path>
<path d="M115.723,103.057c-1.725,10.962-12.199,9.809-28.293,7.278c-16.096-2.529-31.532-7.796-29.498-20.733
	C60.921,70.578,75.9,61.5,91.995,64.03C108.09,66.561,118.713,84.034,115.723,103.057z" style="fill:#801F1F;"></path>
<g>
	<path d="M60.092,96.549l8.982-6.866c2.185-1.67,3.943-0.787,3.909,1.963l-0.129,10.319
		c-0.034,2.75-2.215,4.345-4.846,3.542C68.009,105.507,57.405,102.276,60.092,96.549z" style="fill:#FFFFFF;"></path>
</g>
<g>
	<path d="M99.282,111.526l3.891-14.281c0.724-2.653,2.693-3.047,4.378-0.873l6.151,7.934
		c1.686,2.173,1.158,4.149-1.168,5.614C112.534,109.919,108.16,113.081,99.282,111.526z" style="fill:#FFFFFF;"></path>
</g>
<g style="display:none;" id="Layer_5">
	
		<radialGradient gradientUnits="userSpaceOnUse" gradientTransform="matrix(1 0 0 1 -56.0225 -393.9355)" r="27.7285" cy="479.6814" cx="136.0247" id="SVGID_9_">
		<stop style="stop-color:#FF8A8A" offset="0.573"></stop>
		<stop style="stop-color:#C23A34" offset="0.927"></stop>
		<stop style="stop-color:#A60400" offset="0.9944"></stop>
	</radialGradient>
	<path d="M96.177,95.69c0,0-2.814-7-14.148-2s1.563,23.871,11.322,23.871L96.177,95.69
		z" style="display:inline;fill:url(#SVGID_9_);"></path>
	
		<radialGradient gradientUnits="userSpaceOnUse" gradientTransform="matrix(1 0 0 1 -56.0225 -393.9355)" r="21.7768" cy="489.1492" cx="141.7737" id="SVGID_10_">
		<stop style="stop-color:#FF8A8A" offset="0.573"></stop>
		<stop style="stop-color:#C23A34" offset="0.927"></stop>
		<stop style="stop-color:#A60400" offset="0.9944"></stop>
	</radialGradient>
	<path d="M93.35,117.562c0,0,12.685,3.292,12.685-9.589
		c0-16.914,7.783-8.924,7.783-8.924S89.523,75.1,93.35,117.562z" style="display:inline;fill:url(#SVGID_10_);"></path>
</g>
<g style="display:none;" id="Layer_3">
	<g style="display:inline;">
		<g style="opacity:0.32;">
			<g style="opacity:0;">
				
					<radialGradient gradientUnits="userSpaceOnUse" gradientTransform="matrix(0.9963 0.0859 -0.0927 1.0743 -65.2063 -368.9369)" r="41.2529" cy="365.2468" cx="205.095" id="SVGID_11_">
					<stop style="stop-color:#FFD4BF" offset="0.573"></stop>
					<stop style="stop-color:#E38A86" offset="0.927"></stop>
					<stop style="stop-color:#C97775" offset="0.9944"></stop>
				</radialGradient>
				<path d="M136.314,88.302c-0.853,9.868-15.969,19.037-37.268,16.792
					C77.87,102.863,65.742,92.158,66.595,82.29c0.851-9.869,13.813-8.871,35.025-7.041
					C122.836,77.079,137.166,78.435,136.314,88.302z" style="fill:url(#SVGID_11_);"></path>
			</g>
			<g style="opacity:0.1667;">
				
					<radialGradient gradientUnits="userSpaceOnUse" gradientTransform="matrix(0.9963 0.0859 -0.0915 1.0613 -65.1065 -369.9546)" r="41.3221" cy="371.5886" cx="204.9446" id="SVGID_12_">
					<stop style="stop-color:#FFD4BF" offset="0.573"></stop>
					<stop style="stop-color:#E38A86" offset="0.927"></stop>
					<stop style="stop-color:#C97775" offset="0.9944"></stop>
				</radialGradient>
				<path d="M135.854,88.596c-0.81,9.368-15.93,17.775-36.72,15.596
					c-20.672-2.168-33.157-12.184-32.349-21.553c0.809-9.371,14.045-8.092,34.752-6.305
					C122.246,78.12,136.663,79.225,135.854,88.596z" style="fill:url(#SVGID_12_);"></path>
			</g>
			<g style="opacity:0.3333;">
				
					<radialGradient gradientUnits="userSpaceOnUse" gradientTransform="matrix(0.9963 0.0859 -0.0904 1.0483 -65.0243 -370.9723)" r="41.1844" cy="378.4011" cx="204.8528" id="SVGID_13_">
					<stop style="stop-color:#FFD4BF" offset="0.573"></stop>
					<stop style="stop-color:#E38A86" offset="0.927"></stop>
					<stop style="stop-color:#C97775" offset="0.9944"></stop>
				</radialGradient>
				<path d="M135.395,88.888c-0.767,8.87-15.89,16.516-36.171,14.398
					c-20.167-2.104-33.013-11.43-32.246-20.301c0.766-8.873,14.275-7.312,34.478-5.567S136.16,80.016,135.395,88.888z" style="fill:url(#SVGID_13_);"></path>
			</g>
			<g style="opacity:0.5;">
				
					<radialGradient gradientUnits="userSpaceOnUse" gradientTransform="matrix(0.9963 0.0859 -0.0893 1.0353 -64.9425 -371.991)" r="40.8369" cy="385.697" cx="204.761" id="SVGID_14_">
					<stop style="stop-color:#FFD4BF" offset="0.573"></stop>
					<stop style="stop-color:#E38A86" offset="0.927"></stop>
					<stop style="stop-color:#C97775" offset="0.9944"></stop>
				</radialGradient>
				<path d="M134.935,89.181c-0.724,8.373-15.85,15.256-35.624,13.203
					c-19.663-2.04-32.866-10.675-32.145-19.048c0.724-8.375,14.509-6.529,34.203-4.832
					C121.065,80.203,135.657,80.806,134.935,89.181z" style="fill:url(#SVGID_14_);"></path>
			</g>
			<g style="opacity:0.6667;">
				
					<radialGradient gradientUnits="userSpaceOnUse" gradientTransform="matrix(0.9963 0.0859 -0.0882 1.0223 -64.8593 -373.0116)" r="40.2657" cy="393.491" cx="204.6682" id="SVGID_15_">
					<stop style="stop-color:#FFD4BF" offset="0.573"></stop>
					<stop style="stop-color:#E38A86" offset="0.927"></stop>
					<stop style="stop-color:#C97775" offset="0.9944"></stop>
				</radialGradient>
				<path d="M134.475,89.474c-0.681,7.874-15.81,13.994-35.076,12.007
					C80.241,99.505,66.68,91.56,67.358,83.686c0.681-7.876,14.741-5.75,33.93-4.096S135.154,81.597,134.475,89.474z" style="fill:url(#SVGID_15_);"></path>
			</g>
			<g style="opacity:0.8333;">
				
					<radialGradient gradientUnits="userSpaceOnUse" gradientTransform="matrix(0.9963 0.0859 -0.087 1.0093 -64.7595 -374.0303)" r="39.479" cy="401.7888" cx="204.5149" id="SVGID_16_">
					<stop style="stop-color:#FFD4BF" offset="0.573"></stop>
					<stop style="stop-color:#E38A86" offset="0.927"></stop>
					<stop style="stop-color:#C97775" offset="0.9944"></stop>
				</radialGradient>
				<path d="M134.015,89.766c-0.638,7.375-15.77,12.733-34.528,10.812
					c-18.652-1.912-32.572-9.167-31.938-16.543c0.638-7.38,14.973-4.971,33.654-3.358C119.886,82.287,134.651,82.388,134.015,89.766
					z" style="fill:url(#SVGID_16_);"></path>
			</g>
			<g>
				
					<radialGradient gradientUnits="userSpaceOnUse" gradientTransform="matrix(0.9963 0.0859 -0.0859 0.9963 -64.6685 -375.0411)" r="38.4599" cy="410.5818" cx="204.4143" id="SVGID_17_">
					<stop style="stop-color:#FFD4BF" offset="0.573"></stop>
					<stop style="stop-color:#E38A86" offset="0.927"></stop>
					<stop style="stop-color:#C97775" offset="0.9944"></stop>
				</radialGradient>
				<path d="M133.555,90.059c-0.595,6.877-15.729,11.475-33.979,9.614
					C81.426,97.826,67.147,91.26,67.74,84.383c0.594-6.881,15.203-4.188,33.379-2.622C119.295,83.328,134.148,83.177,133.555,90.059
					z" style="fill:url(#SVGID_17_);"></path>
			</g>
		</g>
		<g>
			
				<radialGradient gradientUnits="userSpaceOnUse" gradientTransform="matrix(0.9963 0.0859 -0.0859 0.9963 -64.6685 -375.0411)" r="57.1587" cy="479.7595" cx="201.7356" id="SVGID_18_">
				<stop style="stop-color:#99302B" offset="0.1854"></stop>
				<stop style="stop-color:#631311" offset="0.9944"></stop>
			</radialGradient>
			<path d="M132.613,89.96c-0.61,7.081-15.841,11.845-34.192,9.968
				c-18.247-1.864-32.592-8.594-31.98-15.676c0.61-7.083,15.298-4.343,33.572-2.768C118.286,83.062,133.223,82.877,132.613,89.96z" style="fill:url(#SVGID_18_);"></path>
		</g>
		
			<radialGradient gradientUnits="userSpaceOnUse" gradientTransform="matrix(0.9963 0.0859 -0.0859 0.9963 -64.4517 -375.2745)" r="9.5676" cy="450.1199" cx="218.6555" id="SVGID_19_">
			<stop style="stop-color:#FFFFFF" offset="0"></stop>
			<stop style="stop-color:#FCFCFC" offset="0.6685"></stop>
			<stop style="stop-color:#DEDEDE" offset="0.7753"></stop>
			<stop style="stop-color:#C4C4C4" offset="1"></stop>
		</radialGradient>
		<path d="M114.461,93.527c-2.017,0.086-5.804,1.327-5.931,2.791l-0.34,3.929
			c4.284-0.104,8.203-0.548,11.533-1.271l0.133-1.55C120.031,95.421,117.822,93.385,114.461,93.527z" style="fill:url(#SVGID_19_);"></path>
		
			<radialGradient gradientUnits="userSpaceOnUse" gradientTransform="matrix(0.9963 0.0859 -0.0859 0.9963 -64.4517 -375.2745)" r="8.6628" cy="451.4734" cx="190.6965" id="SVGID_20_">
			<stop style="stop-color:#FFFFFF" offset="0"></stop>
			<stop style="stop-color:#FCFCFC" offset="0.6685"></stop>
			<stop style="stop-color:#DEDEDE" offset="0.7753"></stop>
			<stop style="stop-color:#C4C4C4" offset="1"></stop>
		</radialGradient>
		<path d="M80.711,90.934l-0.46,5.344c3.656,1.262,7.959,2.295,12.662,2.998l0.371-4.308
			C93.561,91.762,81.048,87.031,80.711,90.934z" style="fill:url(#SVGID_20_);"></path>
		
			<radialGradient gradientUnits="userSpaceOnUse" gradientTransform="matrix(0.9963 0.0859 -0.0859 0.9963 -64.4517 -375.2745)" r="10.5921" cy="449.3669" cx="203.925" id="SVGID_21_">
			<stop style="stop-color:#FFFFFF" offset="0"></stop>
			<stop style="stop-color:#FCFCFC" offset="0.6685"></stop>
			<stop style="stop-color:#DEDEDE" offset="0.7753"></stop>
			<stop style="stop-color:#C4C4C4" offset="1"></stop>
		</radialGradient>
		<path d="M94.547,93.965l-0.473,5.479c1.448,0.197,2.93,0.364,4.438,0.494
			c2.901,0.25,5.721,0.354,8.408,0.33l0.438-5.065C107.637,91.993,94.883,90.061,94.547,93.965z" style="fill:url(#SVGID_21_);"></path>
		<path d="M68.905,82.057l-0.28,3.262c-0.114,1.324,0.794,2.492,2.018,2.598l5.114,0.44
			c1.224,0.104,2.315-0.891,2.432-2.213l0.351-4.067c0.062-0.724-0.188-1.393-0.62-1.874C73.757,80.182,70.616,80.656,68.905,82.057
			z" style="fill:#FFFFFF;"></path>
		
			<radialGradient gradientUnits="userSpaceOnUse" gradientTransform="matrix(0.9963 0.0859 -0.0859 0.9963 -64.4517 -375.2745)" r="9.6697" cy="441.6414" cx="186.4016" id="SVGID_22_">
			<stop style="stop-color:#FFFFFF" offset="0"></stop>
			<stop style="stop-color:#FCFCFC" offset="0.7135"></stop>
			<stop style="stop-color:#DEDEDE" offset="0.7753"></stop>
			<stop style="stop-color:#C4C4C4" offset="1"></stop>
		</radialGradient>
		<path d="M79.845,79.755c-0.164,0.368-0.276,0.778-0.312,1.219l-0.451,5.223
			c-0.146,1.7,0.824,3.185,2.16,3.299l5.579,0.48c1.334,0.114,2.547-1.181,2.693-2.88l0.45-5.224
			c0.042-0.486-0.018-0.947-0.14-1.371C86.158,80.149,82.793,79.859,79.845,79.755z" style="fill:url(#SVGID_22_);"></path>
		<path d="M120.566,83.196c-0.151,0.355-0.26,0.745-0.295,1.16l-0.476,5.479
			c-0.053,0.644,0.058,1.256,0.289,1.784l-0.002,0.001c0,0,0.004,0.011,0.008,0.02c0.25,0.571,0.646,1.042,1.136,1.337
			c0.875,0.758,2.319,1.59,4.562,1.782c4.332,0.374,5.521-2.298,5.657-3.919l0.396-4.58
			C129.666,84.663,125.695,83.799,120.566,83.196z" style="fill:#FFFFFF;"></path>
		
			<radialGradient gradientUnits="userSpaceOnUse" gradientTransform="matrix(0.9963 0.0859 -0.0859 0.9963 -64.4517 -375.2745)" r="10.3397" cy="442.0867" cx="214.1819" id="SVGID_23_">
			<stop style="stop-color:#FFFFFF" offset="0"></stop>
			<stop style="stop-color:#FCFCFC" offset="0.7135"></stop>
			<stop style="stop-color:#DEDEDE" offset="0.7753"></stop>
			<stop style="stop-color:#C4C4C4" offset="1"></stop>
		</radialGradient>
		<path d="M108.44,82.155c-0.479,0.479-0.808,1.162-0.874,1.938l-0.417,4.83
			c-0.135,1.571,0.847,2.95,2.181,3.064l5.582,0.48c1.333,0.115,2.537-1.074,2.674-2.646l0.414-4.829
			c0.07-0.811-0.16-1.564-0.58-2.126C114.654,82.609,111.635,82.39,108.44,82.155z" style="fill:url(#SVGID_23_);"></path>
		
			<radialGradient gradientUnits="userSpaceOnUse" gradientTransform="matrix(0.9963 0.0859 -0.0859 0.9963 -64.4517 -375.2745)" r="8.9665" cy="443.5115" cx="200.7375" id="SVGID_24_">
			<stop style="stop-color:#FFFFFF" offset="0"></stop>
			<stop style="stop-color:#FCFCFC" offset="0.7135"></stop>
			<stop style="stop-color:#DEDEDE" offset="0.7753"></stop>
			<stop style="stop-color:#C4C4C4" offset="1"></stop>
		</radialGradient>
		<path d="M101.076,81.578c-3.282-0.283-6.446-0.604-9.438-0.897
			c-0.25,0.379-0.419,0.809-0.459,1.277l-0.447,5.188c-0.053,0.607,0.106,1.191,0.418,1.702h-0.004c0,0,0.006,0.01,0.012,0.016
			c0.34,0.552,0.856,1.011,1.49,1.305c1.145,0.745,3.015,1.575,5.89,1.823c5.558,0.479,6.995-2.023,7.127-3.558l0.447-5.188
			c0.038-0.447-0.04-0.879-0.203-1.28C104.331,81.846,102.717,81.719,101.076,81.578z" style="fill:url(#SVGID_24_);"></path>
		<path d="M68.905,82.057l-0.28,3.262c-0.036,0.414,0.038,0.807,0.181,1.162
			c2.738-0.765,5.94-1.367,9.508-1.786l0.226-2.617c0.062-0.724-0.188-1.393-0.62-1.874C73.757,80.182,70.616,80.656,68.905,82.057z
			 M120.566,83.196c-0.151,0.355-0.26,0.745-0.295,1.16l-0.237,2.754c4.243,0.936,8.108,2.041,11.45,3.269l0.354-4.118
			C129.666,84.663,125.695,83.799,120.566,83.196z M108.44,82.155c-0.479,0.479-0.808,1.162-0.874,1.938l-0.079,0.917
			c3.623,0.431,7.099,0.985,10.37,1.642l0.143-1.657c0.07-0.811-0.16-1.564-0.58-2.126C114.654,82.609,111.635,82.39,108.44,82.155z
			 M79.845,79.755c-0.164,0.368-0.276,0.778-0.312,1.219l-0.313,3.62c3.265-0.348,6.808-0.549,10.563-0.581l0.185-2.141
			c0.042-0.486-0.017-0.947-0.14-1.371C86.158,80.149,82.793,79.859,79.845,79.755z M101.076,81.578
			c-3.282-0.283-6.446-0.604-9.438-0.897c-0.25,0.379-0.419,0.809-0.459,1.277l-0.179,2.053c3.776,0.004,7.747,0.171,11.838,0.522
			c1.058,0.091,2.101,0.196,3.136,0.309l0.138-1.597c0.038-0.447-0.04-0.879-0.203-1.28
			C104.331,81.846,102.717,81.719,101.076,81.578z" style="opacity:0.13;enable-background:new    ;"></path>
		<g>
			
				<radialGradient gradientUnits="userSpaceOnUse" gradientTransform="matrix(0.9963 0.0859 -0.0859 0.9963 -64.6685 -375.0411)" r="13.951" cy="440.2361" cx="185.1252" id="SVGID_25_">
				<stop style="stop-color:#FFFFFF" offset="0"></stop>
				<stop style="stop-color:#FCFCFC" offset="0.7528"></stop>
				<stop style="stop-color:#DEDEDE" offset="0.7753"></stop>
				<stop style="stop-color:#C4C4C4" offset="1"></stop>
			</radialGradient>
			<path d="M78.368,95.36c0,0,1.821-22.798-2.35-21.053c0,0-6.545,1.76-7.672,14.823
				C68.347,89.131,71.634,93.094,78.368,95.36z" style="fill:url(#SVGID_25_);"></path>
		</g>
		<g>
			
				<radialGradient gradientUnits="userSpaceOnUse" gradientTransform="matrix(0.9963 0.0859 -0.0859 0.9963 -64.6685 -375.0411)" r="10.2089" cy="442.739" cx="224.8499" id="SVGID_26_">
				<stop style="stop-color:#FFFFFF" offset="0"></stop>
				<stop style="stop-color:#FCFCFC" offset="0.7528"></stop>
				<stop style="stop-color:#DEDEDE" offset="0.7753"></stop>
				<stop style="stop-color:#C4C4C4" offset="1"></stop>
			</radialGradient>
			<path d="M119.725,98.974c0,0-0.729-5.021,0.135-9.858c0.897-5.02,3.916-10.146,5.558-9.464
				c0,0,8.24,4.051,5.479,13.918C130.895,93.569,127.844,97.397,119.725,98.974z" style="fill:url(#SVGID_26_);"></path>
		</g>
	</g>
</g>
<path d="M91.661,64.03c-16.095-2.53-31.074,6.548-34.062,25.572c-0.34,2.166-0.182,4.111,0.378,5.872
	c5.123-14.356,16.825-17.585,30.864-15.38c13.402,2.108,24.49,11.182,25.603,26.278c0.428-0.958,0.746-2.053,0.945-3.315
	C118.38,84.034,107.756,66.561,91.661,64.03z" style="fill:#690909;"></path>
<path d="M35.146,178.575c0,0,10.01,24.543,34.65,34.65c24.64,10.106,30.452,20.039,30.452,20.039
	l3.059-10.336C103.307,222.929,47.126,196.85,35.146,178.575z" style="fill:#D1A1A1;"></path>
<path d="M124.375,249.451c0,0-1.899-11.219,33.3-11.219c38.747,0,30.877,11.219,30.877,11.219
	s-3.026,3.738-27.243,3.738C123.543,253.19,124.375,249.451,124.375,249.451z" style="fill:#D1A1A1;"></path>
<path d="M138.927,243.109c0.067,2.709-2.847,5.057-7.557,6.157c-4.711,1.104-8.698,1.281-9.505-2.165
	c-0.807-3.447,2.36-7.137,7.07-8.237C133.647,237.762,138.838,239.57,138.927,243.109z" style="fill:#FFD9D9;"></path>
<path d="M162.188,239.979c0.434,2.294-5.051,2.757-12.729,4.104c-6.926,1.215-12.729,3.67-12.729-0.829
	s5.699-10.122,12.729-10.122S161.355,235.557,162.188,239.979z" style="fill:#FFD9D9;"></path>
<path d="M189.156,246.579c-0.504,3.522-6.637-0.624-14.705-1.776c-8.074-1.151-14.415-2.018-13.912-5.54
	s7.456-5.444,15.529-4.291C184.139,236.122,189.659,243.058,189.156,246.579z" style="fill:#FFD9D9;"></path>
<path d="M121.906,241.76c0,0,6.276-43.227,61.022-4.195c0,0-20.031-40.161-52.643-30.565
	C97.673,216.596,121.906,241.76,121.906,241.76z" style="fill:#EDB6B6;"></path>
<path d="M36.926,249.447c0,0-1.813-11.218,31.75-11.218c36.945,0,29.441,11.218,29.441,11.218
	s-2.888,3.739-25.978,3.739C36.132,253.187,36.926,249.447,36.926,249.447z" style="fill:#D1A1A1;"></path>
<path d="M50.8,243.105c0.065,2.709-2.713,5.057-7.204,6.157c-4.492,1.103-8.292,1.281-9.062-2.165
	c-0.771-3.447,2.25-7.137,6.741-8.237C45.767,237.759,50.716,239.566,50.8,243.105z" style="fill:#FFD9D9;"></path>
<path d="M72.98,239.975c0.412,2.295-4.815,2.757-12.14,4.104c-6.604,1.215-12.139,3.67-12.139-0.829
	s5.436-10.122,12.139-10.122C67.545,233.127,72.186,235.552,72.98,239.975z" style="fill:#FFD9D9;"></path>
<path d="M98.693,246.575c-0.479,3.522-6.326-0.624-14.021-1.776c-7.698-1.151-13.743-2.019-13.264-5.541
	c0.479-3.521,7.108-5.443,14.808-4.291C93.909,236.118,99.173,243.054,98.693,246.575z" style="fill:#FFD9D9;"></path>
<path d="M13.175,46.094c0,0-10.069,38.541,19.451,57.314l-8.846,20.347c0,0-19.795-23.818-19.795-58.239
	L13.175,46.094z" style="fill:#4C8C6D;"></path>
<path d="M30.452,48.584c-2.679-4.37-9.188-6.865-16.287-5.805c-8.714,1.304-15.015,7.47-14.072,13.772
	c0.061,0.403,0.147,0.772,0.256,1.113c0.015,0.461,0.05,0.93,0.122,1.404c0.679,4.542,3.765,7.846,6.896,7.377
	c2.347-0.352,5.443-2.93,5.862-6.011c0.455-0.064-0.474,0.071,0,0c1.301,2.822,3.624,4.593,5.971,4.241
	c1.956-0.293,3.467-1.991,4.156-4.334c1.346,2.039,3.285,3.223,5.242,2.93c3.129-0.468,5.113-4.527,4.437-9.07
	C32.688,51.901,31.725,49.92,30.452,48.584z" style="fill:#FFC4C4;"></path>
<path d="M191.68,65.856c0,0,0,0.001,0,0.002C191.809,65.878,191.932,65.898,191.68,65.856z M191.679,72.858
	C191.68,72.858,191.68,72.858,191.679,72.858c0.001,0,0.001-0.001,0.001-0.002C191.68,72.856,191.679,72.857,191.679,72.858z
	 M214.855,67.351c-1.192,4.358-4.376,7.331-7.565,6.82c-2.209-0.354-3.899-2.294-4.654-4.953c-1.545,2.292-3.755,3.608-5.967,3.255
	c-2.646-0.424-4.549-3.126-4.987-6.615c0,0,0,0-0.001,0c-1.507,3.181-5.728,4.9-8.381,4.478c-2.155-0.345-3.811-2.201-4.59-4.758
	c-0.128,0.467-0.244,0.944-0.324,1.442c-0.819,5.132,1.38,9.751,4.914,10.315c2.653,0.424,6.874-1.297,8.381-4.478
	c-0.134-0.021-0.271-0.045,0.001-0.002c0.252,0.042,0.129,0.021,0,0.002c0.438,3.489,2.341,6.191,4.987,6.615
	c2.212,0.354,4.422-0.963,5.967-3.255c0.755,2.659,2.445,4.6,4.654,4.953c3.534,0.564,7.065-3.136,7.888-8.27
	C215.497,70.903,215.353,68.985,214.855,67.351z M191.679,65.858c0-0.001,0.001-0.001,0.001-0.002
	C191.408,65.813,191.546,65.836,191.679,65.858z" style="fill:#EBB4B4;"></path>
<path d="M13.228,53.26c0,0,0-0.001,0-0.002C12.987,53.296,13.11,53.279,13.228,53.26z M13.228,53.26
	c0,0,0,0.001,0.001,0.003C13.343,53.244,13.45,53.228,13.228,53.26z M13.228,60.439L13.228,60.439c0.001-0.001,0.001-0.001,0-0.002
	C13.228,60.437,13.228,60.438,13.228,60.439z M33.033,54.203c-0.102-0.67-0.26-1.309-0.456-1.917
	c-0.751,2.067-2.173,3.54-3.979,3.811c-1.957,0.293-3.896-0.891-5.242-2.93c-0.689,2.342-2.2,4.041-4.156,4.334
	c-2.346,0.352-4.669-1.418-5.97-4.24h-0.001c-0.42,3.08-3.517,5.658-5.862,6.01c-3.035,0.455-6.022-2.644-6.82-6.974
	c-0.488,1.375-0.668,2.811-0.453,4.256c0.061,0.403,0.147,0.772,0.256,1.113c0.015,0.461,0.05,0.931,0.122,1.404
	c0.679,4.542,3.765,7.846,6.896,7.377c2.346-0.351,5.442-2.929,5.862-6.009c-0.118,0.018-0.241,0.035,0-0.002
	c0.223-0.031,0.114-0.016,0.001,0.002c1.301,2.821,3.624,4.591,5.97,4.239c1.956-0.293,3.467-1.991,4.156-4.334
	c1.346,2.039,3.285,3.223,5.242,2.93C31.726,62.806,33.711,58.746,33.033,54.203z" style="fill:#EBB4B4;"></path>
<circle r="4.667" cy="37.76" cx="115.175"></circle>
<circle r="4.667" cy="37.095" cx="72.842"></circle>
</svg>
