<svg t="1642147437995" class="icon" viewBox="0 0 1024 1024" version="1.1" xmlns="http://www.w3.org/2000/svg" p-id="15174" width="64" height="64"><path d="M266.938182 343.063273c102.004364-62.952727 235.170909-33.000727 300.683636 66.443636l3.584 5.585455-59.415273 36.677818a151.296 151.296 0 0 0-203.310545-52.177455l-4.887273 2.885818-138.635636 85.550546a151.272727 151.272727 0 0 0-52.177455 203.287273l2.885819 4.887272 48.872727 79.220364a151.272727 151.272727 0 0 0 203.310545 52.177455l4.887273-2.885819 138.635636-85.527272 36.654546 59.415272-138.635637 85.527273A221.090909 221.090909 0 0 1 108.683636 817.687273l-3.584-5.585455-48.872727-79.243636a221.090909 221.090909 0 0 1 66.466909-300.683637l5.585455-3.560727 138.635636-85.550545z" fill="#00A2FF" p-id="15175"></path><path d="M596.130909 126.068364a221.090909 221.090909 0 0 1 300.706909 66.443636l3.584 5.608727 48.872727 79.220364a221.090909 221.090909 0 0 1-66.466909 300.683636l-5.585454 3.560728-138.635637 85.550545c-102.027636 62.952727-235.194182 33.000727-300.683636-66.443636l-3.584-5.585455 59.415273-36.677818a151.296 151.296 0 0 0 203.310545 52.177454l4.887273-2.885818 138.612364-85.550545a151.272727 151.272727 0 0 0 52.200727-203.287273l-2.909091-4.887273-48.872727-79.220363A151.272727 151.272727 0 0 0 637.672727 182.597818l-4.887272 2.885818-138.612364 85.527273-36.654546-59.415273 138.612364-85.527272z" fill="#999999" p-id="15176"></path></svg>