<svg t="1643356660737" class="icon" viewBox="0 0 1024 1024" version="1.1" xmlns="http://www.w3.org/2000/svg" p-id="3625" width="64" height="64"><path d="M809.28 851.968l44.608 44.608a32 32 0 0 1-45.248 45.248l-44.608-44.544-43.52 43.52a32 32 0 1 1-45.184-45.312l43.52-43.52-45.952-45.888a32 32 0 0 1 45.248-45.248l45.888 45.888 47.04-46.976a32 32 0 1 1 45.248 45.248l-47.04 46.976z m42.496-179.52a192 192 0 0 0-274.56 194.88l-40.832-27.2-97.728 97.664c-8.192 8.128-24.448 16.256-40.768 8.128a44.8 44.8 0 0 1-24.448-40.704v-179.008c0-8.128 0-16.256 8.192-24.384l390.976-415.04-16.32-8.128-431.68 390.592c-16.32 16.256-32.64 16.256-48.896 8.128L80.256 555.328c-8.192 0-16.32-16.256-16.32-32.576 0-16.256 8.128-32.512 24.448-32.512l814.528-406.912c8.128-8.128 24.448-8.128 40.704 0 16.32 8.128 16.32 24.448 16.32 48.832l-108.16 540.288z" fill="#000000" fill-opacity=".28" p-id="3626"></path></svg>