<svg t="1642147327034" class="icon" viewBox="0 0 1024 1024" version="1.1" xmlns="http://www.w3.org/2000/svg" p-id="9123" width="64" height="64"><path d="M987.434667 0c7.751111 0 14.627556 2.126222 20.622222 6.371556 12.629333 9.123556 17.756444 21.376 15.381333 36.494222l-105.756444 634.666666A197.902222 197.902222 0 0 0 858.076444 668.444444C754.396444 668.444444 668.444444 754.403556 668.444444 862.812444c0 6.954667 0.384 13.824 1.137778 20.586667l-101.020444-41.265778-138.247111 168.604445c-6.876444 8.746667-16.128 13.248-28.003556 13.248a31.36 31.36 0 0 1-12.622222-2.247111 35.505778 35.505778 0 0 1-17.379556-13.368889 35.719111 35.719111 0 0 1-6.620444-20.878222v-199.594667l493.624889-605.048889-610.631111 528.554667L22.940444 618.794667C8.817778 613.418667 1.187556 603.043556 0.071111 587.420444c-0.753778-15.246222 5.368889-26.496 18.247111-33.742222L969.187556 5.12C974.933333 1.749333 981.063111 0 987.434667 0z" fill="#C7CFDD" p-id="9124"></path><path d="M934.855111 833.984l-84.906667 92.835556a15.431111 15.431111 0 0 1-11.434666 5.041777h-0.092445a15.473778 15.473778 0 0 1-11.434666-5.184l-41.464889-46.414222a15.473778 15.473778 0 0 1 23.089778-20.608l30.044444 33.664 73.365333-80.220444a15.480889 15.480889 0 0 1 22.833778 20.906666M860.465778 696.888889C770.232889 696.910222 696.888889 770.311111 696.888889 860.465778 696.888889 950.641778 770.232889 1024 860.444444 1024c90.168889 0 163.555556-73.358222 163.555556-163.534222 0-90.154667-73.386667-163.534222-163.555556-163.534222" fill="#1DC11D" p-id="9125"></path></svg>