<svg t="1642000777983" viewBox="0 0 1233 1024" version="1.1" xmlns="http://www.w3.org/2000/svg" p-id="20113" width="64" height="64"><path d="M106.729318 963.911564a21.561478 21.561478 0 0 1-7.035851-0.79437 49.477919 49.477919 0 0 1-42.101623-54.584585c24.171552-226.96293 104.516429-394.575054 237.85715-499.318446a624.885687 624.885687 0 0 1 361.041281-125.567241l29.618663-1.532V120.687538c0-63.946806 58.499695-77.961766 89.650357-46.811104L1139.921317 444.279936a90.217765 90.217765 0 0 1-2.32637 141.851831l-354.799801 361.041281a55.151992 55.151992 0 0 1-96.459245-38.186513v-172.77553h-36.654514c-133.340721 0-375.850612 26.497922-502.949853 205.117748a43.974068 43.974068 0 0 1-39.718512 22.696293z" fill="#8590a6" p-id="20114"></path></svg>